<svg width="1200" height="630" viewBox="0 0 1200 630" fill="none" xmlns="http://www.w3.org/2000/svg">
<rect width="1200" height="630" fill="white"/>
<mask id="mask0" mask-type="alpha" maskUnits="userSpaceOnUse" x="0" y="0" width="1200" height="630">
<rect width="1200" height="630" fill="#C4C4C4"/>
</mask>
<g mask="url(#mask0)">
<path d="M413.639 530.54C391.178 546.286 382.983 550.871 373.246 563.067C369.508 567.743 367.639 570.081 365.889 573.79C356.445 593.723 367.414 616.42 371.948 624.725C386.567 618.597 402.77 610.671 419.695 600.332C429.461 594.366 438.344 588.304 446.36 582.337C443.232 577.293 443.677 572.423 445.52 571.303C447.278 570.234 451.382 571.925 454.434 576.159C459.899 573.517 466.589 569.61 473.401 563.809C477.525 560.305 480.891 556.785 483.627 553.565C475.546 540.752 455.98 512.879 435.94 515.815C432.8 516.261 432.989 516.989 413.639 530.54Z" fill="#FFF5DD"/>
<path d="M391.647 478.09C404.196 505.836 411.334 522.641 412.851 528.203C412.976 528.659 413.38 530.193 414.664 531.505C418.176 535.07 425.246 533.977 429.589 532.119C430.406 531.772 438.581 528.146 438.856 522.275C438.983 519.732 437.575 517.786 437.206 517.235C433.98 512.566 428.153 498.501 417.746 466.868C409.041 470.613 400.337 474.344 391.647 478.09Z" fill="#FFD1D1"/>
<mask id="mask1" mask-type="alpha" maskUnits="userSpaceOnUse" x="387" y="464" width="57" height="72">
<path d="M391.647 478.09C404.196 505.836 411.334 522.641 412.851 528.203C412.976 528.659 413.38 530.193 414.664 531.505C418.176 535.07 425.246 533.977 429.589 532.119C430.406 531.772 438.581 528.146 438.856 522.275C438.983 519.732 437.575 517.786 437.206 517.235C433.98 512.566 428.153 498.501 417.746 466.868C409.041 470.613 400.337 474.344 391.647 478.09Z" fill="#FFD1D1"/>
</mask>
<g mask="url(#mask1)">
<path d="M410.499 495.983C401.609 496.47 388.085 491.817 388.085 491.817L382.69 464.844L434.377 463.841L436.885 486.351C436.885 486.351 421.453 495.384 410.499 495.983Z" fill="#FFBFBE"/>
</g>
<mask id="mask2" mask-type="alpha" maskUnits="userSpaceOnUse" x="356" y="512" width="133" height="114">
<path d="M413.639 530.541C391.178 546.287 382.983 550.872 373.246 563.068C369.508 567.744 367.639 570.082 365.889 573.791C356.445 593.724 367.414 616.421 371.948 624.726C386.567 618.598 402.77 610.672 419.694 600.333C429.461 594.367 438.344 588.305 446.36 582.338C443.232 577.294 443.677 572.424 445.52 571.304C447.278 570.235 451.382 571.926 454.434 576.16C459.899 573.518 466.588 569.611 473.4 563.81C477.524 560.306 480.891 556.786 483.627 553.566C475.546 540.753 455.98 512.88 435.94 515.816C432.8 516.262 432.989 516.99 413.639 530.541Z" fill="#A4A7B7"/>
</mask>
<g mask="url(#mask2)">
<path d="M361.669 611.354C391.562 598.203 408.013 589.416 435.872 566.379C435.872 566.379 436.944 562.006 439.118 560.601C441.153 559.287 445.276 559.847 445.276 559.847C457.105 552.961 460.199 547.812 473.369 538.433" stroke="#23282E" stroke-width="3.39182"/>
</g>
<path d="M263.101 349.846C242.734 331.472 236.433 324.509 222.37 317.744C216.977 315.145 214.28 313.846 210.274 312.969C188.734 308.218 169.063 323.982 161.981 330.257C171.221 343.137 182.567 357.159 196.427 371.345C204.425 379.531 212.319 386.835 219.926 393.315C224.143 389.139 228.99 388.484 230.493 390.03C231.928 391.505 231.197 395.883 227.752 399.804C231.548 404.541 236.852 410.188 244.028 415.531C248.365 418.768 252.548 421.262 256.299 423.21C266.981 412.47 289.777 387.17 282.438 368.293C281.3 365.332 280.633 365.679 263.101 349.846Z" fill="#FFECBE"/>
<path d="M290.025 303.551C273.309 329.005 262.938 344.031 259.052 348.291C258.733 348.64 257.654 349.803 257.234 351.59C256.104 356.465 260.811 361.851 264.707 364.524C265.436 365.028 272.876 369.991 277.983 367.081C280.198 365.826 281.088 363.595 281.356 362.989C283.572 357.765 292.331 345.312 313.476 319.586C305.652 314.239 297.842 308.885 290.025 303.551Z" fill="#FFD1D1"/>
<mask id="mask3" mask-type="alpha" maskUnits="userSpaceOnUse" x="242" y="297" width="84" height="77">
<path d="M290.026 303.552C273.31 329.006 262.939 344.032 259.052 348.292C258.734 348.641 257.655 349.804 257.234 351.591C256.104 356.466 260.812 361.852 264.707 364.525C265.437 365.029 272.877 369.992 277.983 367.082C280.199 365.827 281.088 363.596 281.356 362.99C283.572 357.766 292.332 345.313 313.477 319.587C305.653 314.24 297.842 308.886 290.026 303.552Z" fill="#FFD1D1"/>
</mask>
<g mask="url(#mask3)">
<path d="M280.123 339.866C273.036 334.477 265.748 322.171 265.748 322.171L279.113 298.129L319.136 330.849L306.464 349.622C306.464 349.622 288.855 346.505 280.123 339.866Z" fill="#FFBFBE"/>
</g>
<mask id="mask4" mask-type="alpha" maskUnits="userSpaceOnUse" x="159" y="292" width="137" height="150">
<path d="M263.101 349.844C242.734 331.47 236.433 324.507 222.37 317.742C216.977 315.143 214.28 313.844 210.274 312.967C188.734 308.216 169.063 323.98 161.981 330.255C171.221 343.135 182.567 357.157 196.427 371.343C204.424 379.529 212.319 386.833 219.925 393.313C224.143 389.137 228.99 388.482 230.493 390.028C231.927 391.503 231.197 395.881 227.752 399.802C231.548 404.539 236.851 410.186 244.027 415.529C248.364 418.766 252.548 421.26 256.298 423.208C266.981 412.468 289.776 387.168 282.437 368.291C281.3 365.33 280.633 365.677 263.101 349.844Z" fill="#FFEAC1"/>
</mask>
<g mask="url(#mask4)">
<path d="M172.717 317.247C192.215 343.445 204.457 357.517 233.136 379.523C233.136 379.523 237.638 379.591 239.493 381.396C241.23 383.086 241.604 387.23 241.604 387.23C250.96 397.22 256.918 402.603 270.845 411.189" stroke="#23282E" stroke-width="3.39182"/>
</g>
<path d="M415.684 144.222C475.89 143.319 596.502 251.058 596.502 251.058L596.15 344.717C596.15 344.717 531.8 347.381 515.856 330.155C499.912 312.93 446.217 251.85 430.994 250.371C415.772 248.892 346.294 357.712 346.294 357.712L242.816 284.165C242.816 284.165 355.477 145.125 415.684 144.222Z" fill="#569AD4"/>
<mask id="mask5" mask-type="alpha" maskUnits="userSpaceOnUse" x="225" y="84" width="415" height="405">
<path d="M415.683 144.222C475.889 143.319 596.501 251.058 596.501 251.058L596.149 344.717C596.149 344.717 531.799 347.381 515.855 330.155C499.911 312.93 446.216 251.85 430.993 250.371C415.771 248.892 346.293 357.712 346.293 357.712L242.815 284.165C242.815 284.165 355.476 145.125 415.683 144.222Z" fill="#569AD4"/>
</mask>
<g mask="url(#mask5)">
<path d="M275.754 189.468L190.308 367.193" stroke="#FFECBE" stroke-width="2.82652"/>
<path d="M330.673 169.498L245.226 347.224" stroke="#FFECBE" stroke-width="2.82652"/>
<path d="M385.592 149.529L282.189 364.602" stroke="#FFECBE" stroke-width="2.82652"/>
<path d="M440.511 129.56L326.895 365.877" stroke="#FFECBE" stroke-width="2.82652"/>
<path d="M495.43 109.591L409.983 287.316" stroke="#FFECBE" stroke-width="2.82652"/>
<path d="M550.349 89.6211L424.808 350.74" stroke="#FFECBE" stroke-width="2.82652"/>
<path d="M605.267 69.6523L437.137 419.356" stroke="#FFECBE" stroke-width="2.82652"/>
<path d="M660.186 49.6826L492.055 399.387" stroke="#FFECBE" stroke-width="2.82652"/>
<path d="M378.865 341.665L141.308 227.452" stroke="#FFECBE" stroke-width="2.82652"/>
<path d="M536.882 372.32L196.673 208.754" stroke="#FFECBE" stroke-width="2.82652"/>
<path d="M552.812 334.657L214.687 172.094" stroke="#FFECBE" stroke-width="2.82652"/>
<path d="M571.706 298.425L269.195 152.984" stroke="#FFECBE" stroke-width="2.82652"/>
<path d="M592.72 263.21L362.762 152.651" stroke="#FFECBE" stroke-width="2.82652"/>
<path d="M595.851 219.398L334.732 93.8577" stroke="#FFECBE" stroke-width="2.82652"/>
<path d="M651.217 200.698L301.513 32.5677" stroke="#FFECBE" stroke-width="2.82652"/>
<path d="M706.58 181.998L356.876 13.8675" stroke="#FFECBE" stroke-width="2.82652"/>
</g>
<path d="M379.113 244.344C425.646 206.131 589.053 249.468 589.053 249.468L647.793 336.863C647.793 336.863 595.378 359.959 572.175 356.417C548.972 352.875 479.349 328.291 466.52 336.618C453.691 344.944 467.135 473.351 467.135 473.351L340.371 480.283C340.371 480.283 332.579 282.558 379.113 244.344Z" fill="#6EAADD"/>
<mask id="mask6" mask-type="alpha" maskUnits="userSpaceOnUse" x="297" y="184" width="371" height="373">
<path d="M379.113 244.344C425.646 206.131 589.053 249.468 589.053 249.468L647.793 336.863C647.793 336.863 595.378 359.959 572.175 356.417C548.972 352.875 479.349 328.291 466.52 336.618C453.691 344.944 467.135 473.351 467.135 473.351L340.371 480.283C340.371 480.283 332.579 282.558 379.113 244.344Z" fill="#6EAADD"/>
</mask>
<g mask="url(#mask6)">
<path d="M456.646 306.53C428.806 297.095 437.655 414.488 445.559 474.364L487.261 496.127L473.232 349.106L604.387 388.353L621.564 335.503C615.475 336.904 598.775 341.135 580.692 346.848C558.088 353.989 491.447 318.324 456.646 306.53Z" fill="#569AD4"/>
<path d="M313.368 390.895L402.878 566.609" stroke="#FFF5DD" stroke-width="2.82652"/>
<path d="M330.79 335.115L420.3 510.829" stroke="#FFF5DD" stroke-width="2.82652"/>
<path d="M348.212 279.336L456.532 491.975" stroke="#FFF5DD" stroke-width="2.82652"/>
<path d="M365.635 223.557L474.386 437.043" stroke="#FFF5DD" stroke-width="2.82652"/>
<path d="M383.057 167.778L472.567 343.492" stroke="#FFF5DD" stroke-width="2.82652"/>
<path d="M400.479 111.999L531.99 370.163" stroke="#FFF5DD" stroke-width="2.82652"/>
<path d="M417.901 56.2197L594.027 401.966" stroke="#FFF5DD" stroke-width="2.82652"/>
<path d="M435.324 0.441406L611.45 346.188" stroke="#FFF5DD" stroke-width="2.82652"/>
<path d="M496.914 401.191L262.045 520.836" stroke="#FFF5DD" stroke-width="2.82652"/>
<path d="M617.107 294.128L280.748 465.472" stroke="#FFF5DD" stroke-width="2.82652"/>
<path d="M596.817 258.623L262.519 428.917" stroke="#FFF5DD" stroke-width="2.82652"/>
<path d="M579.464 221.629L280.377 373.986" stroke="#FFF5DD" stroke-width="2.82652"/>
<path d="M512.564 209.871L336.85 299.381" stroke="#FFF5DD" stroke-width="2.82652"/>
<path d="M531.266 154.508L273.102 286.019" stroke="#FFF5DD" stroke-width="2.82652"/>
<path d="M549.967 99.1445L204.221 275.27" stroke="#FFF5DD" stroke-width="2.82652"/>
<path d="M568.669 43.7812L222.923 219.907" stroke="#FFF5DD" stroke-width="2.82652"/>
<path d="M542.511 286.427L588.905 262.923L625.579 282.672C618.484 286.928 599.86 297.219 582.124 304.341C564.387 311.462 548.325 295.366 542.511 286.427Z" fill="#569AD4" stroke="#FFF5DD" stroke-width="2.82652"/>
</g>
<path d="M887.658 152.142L943.45 107.355L943.087 105.31C943.087 105.31 942.757 103.966 942.684 102.834C942.449 98.8174 944.258 94.6272 947.564 77.2485C950.673 60.8147 950.567 59.5175 950.291 58.0342C948.261 47.2531 939.769 39.4976 942.808 35.4997C943.015 35.2231 943.362 34.7686 943.998 34.5606C948.465 33.1112 956.817 48.0101 959.849 53.6769C961.004 47.0486 960.543 41.8731 959.895 38.3104C958.387 29.9998 954.552 23.6603 957.287 20.7521C957.4 20.6271 958.605 19.397 960.026 19.5375C961.507 19.6916 962.445 21.2449 963.329 22.8376C966.008 27.7284 968.359 32.0219 968.869 39.0302C968.992 40.7178 968.983 42.3384 968.95 42.3382C968.864 42.3443 969.162 35.1819 968.015 26.0266C967.002 17.9503 965.512 13.3642 968.119 10.9051C968.332 10.7145 969.323 9.77419 970.474 9.92635C972.278 10.1617 973.778 12.9288 974.232 17.0394C974.199 15.7956 974.114 9.61656 977.165 8.34419C977.165 8.34419 977.967 8.00485 978.806 8.1486C980.366 8.40896 983.177 12.09 983.637 41.2454C982.802 54.57 979.504 63.3291 975.327 75.7216C973.632 80.7327 978.393 94.5557 958.311 119.687C938.23 144.819 897.588 187.428 897.588 187.428L887.658 152.142Z" fill="#FFBFBE"/>
<path d="M957.318 103.74C953.982 101.65 953.685 96.7069 953.637 95.8533C953.51 93.8482 953.915 92.296 954.252 91.1403C956.688 82.7068 959.485 81.8365 960.439 76.7153C961.033 73.5501 960.469 70.2458 959.354 63.6772C958.791 60.3069 957.995 57.0345 959.853 54.9747C960.013 54.7904 961.098 53.5992 962.653 53.5421C963.771 53.4956 965.813 54.0167 969.01 59.5852C972.902 66.3352 973.998 72.7118 974.254 74.2348C975.431 81.4322 976.711 89.3446 972.567 96.8289C969.92 101.623 966.683 103.165 965.934 103.498C964.806 103.988 960.674 105.856 957.318 103.74Z" fill="#FFD1D1"/>
<path d="M790.433 491.157C786.151 493.033 790.301 501.261 784.048 514.179C779.908 522.729 774.49 526.556 776.145 529.626C777.493 532.13 782.609 532.388 786.177 531.486C791.427 530.159 792.05 526.68 801.207 517.935C807.078 512.328 808.393 512.27 808.93 509.958C810.921 501.47 796.375 488.553 790.433 491.157Z" fill="#FFBFBE"/>
<path d="M802.859 389.006C810.972 407.301 812.767 422.38 812.736 433.248C812.699 446.48 809.901 466.243 815.111 467.948C816.287 468.332 816.966 467.538 818.919 467.794C823.933 468.446 826.828 475.34 828.282 478.561C831.495 485.717 836.7 497.357 844.645 505.001C852.604 512.651 862.18 515.245 861.65 520.416C861.603 520.835 861.528 521.697 860.876 522.291C858.832 524.196 853.696 521.105 844.173 517.133C840.497 515.603 837.434 514.472 835.376 513.743C843.178 550.837 840.105 556.603 837.847 557.494C837.192 557.744 836.508 557.638 836.375 557.609C831.878 556.79 831.81 545.223 827.374 529.438C826.094 524.894 824.815 521.296 823.998 519.089C824.264 522.411 824.75 527.679 825.627 534.14C828.327 554.078 832.135 566.128 827.811 568.62C826.854 569.17 825.864 569.053 825.665 569.025C820.675 568.32 819.808 556.12 814.367 537.762C812.801 532.466 811.319 528.252 810.423 525.795C810.069 528.274 809.654 532.323 810.025 537.277C811.119 551.654 817.984 562.287 814.853 564.6C814.282 565.02 813.646 564.985 813.196 564.971C805.835 564.664 799.111 543.067 797.301 537.102C786.814 502.447 783.398 467.915 778.997 443.71C776.592 430.469 772.211 410.777 763.682 387.1C776.749 387.728 789.797 388.364 802.859 389.006Z" fill="#FFD1D1"/>
<mask id="mask7" mask-type="alpha" maskUnits="userSpaceOnUse" x="704" y="373" width="198" height="203">
<path d="M802.859 389.006C810.972 407.301 812.767 422.38 812.736 433.248C812.699 446.48 809.901 466.243 815.111 467.948C816.287 468.332 816.966 467.538 818.919 467.794C823.933 468.446 826.828 475.34 828.282 478.561C831.495 485.717 836.7 497.357 844.645 505.001C852.603 512.651 862.18 515.245 861.65 520.416C861.603 520.835 861.528 521.697 860.876 522.291C858.832 524.196 853.696 521.105 844.173 517.133C840.497 515.603 837.434 514.472 835.376 513.743C843.178 550.837 840.105 556.603 837.847 557.494C837.192 557.744 836.508 557.638 836.375 557.609C831.878 556.79 831.81 545.223 827.374 529.438C826.094 524.894 824.815 521.296 823.998 519.089C824.264 522.411 824.75 527.679 825.627 534.14C828.327 554.078 832.135 566.128 827.811 568.62C826.854 569.17 825.864 569.053 825.665 569.025C820.675 568.32 819.808 556.12 814.367 537.762C812.801 532.466 811.319 528.252 810.423 525.795C810.069 528.274 809.654 532.323 810.025 537.277C811.119 551.654 817.984 562.287 814.853 564.6C814.282 565.02 813.646 564.985 813.196 564.971C805.835 564.664 799.111 543.067 797.301 537.102C786.814 502.447 783.398 467.915 778.997 443.71C776.592 430.469 772.211 410.777 763.682 387.1C776.749 387.728 789.797 388.364 802.859 389.006Z" fill="#FFD1D1"/>
</mask>
<g mask="url(#mask7)">
<path d="M825.448 429.357L763.909 439.205L756.323 407.664L817.568 397.135L825.448 429.357Z" fill="#FFBFBE"/>
</g>
<path d="M589.382 360.052L577.627 234.834C614.109 228.637 654.552 228.071 687.144 207.908C719.737 187.745 743.543 187.434 776.296 174.713C821.372 157.207 883.733 125.648 883.733 125.648L918.773 215.471C918.773 215.471 856.806 228.877 795.174 258.308C825.49 316.051 834.866 354.7 849.153 409.263L744.031 426.053L732.477 327.878C675.726 357.224 644.679 358.773 589.382 360.052Z" fill="#FF7C8E"/>
<mask id="mask8" mask-type="alpha" maskUnits="userSpaceOnUse" x="537" y="46" width="405" height="412">
<path d="M589.382 360.052L577.627 234.834C614.109 228.637 654.552 228.071 687.144 207.908C719.737 187.745 743.543 187.434 776.296 174.713C821.372 157.207 883.733 125.648 883.733 125.648L918.773 215.471C918.773 215.471 856.806 228.877 795.174 258.308C825.49 316.051 834.866 354.7 849.153 409.263L744.031 426.053L732.477 327.878C675.726 357.224 644.679 358.773 589.382 360.052Z" fill="#FF7C8E"/>
</mask>
<g mask="url(#mask8)">
<path d="M939.259 227.667L897.537 125.378L868.853 125.308C890.047 169.282 898.735 193.02 912.485 234.86L939.259 227.667Z" fill="#FF697D"/>
<path d="M739.698 442.221L848.623 423.807L854.946 395.828C807.408 406.924 782.347 410.226 738.516 414.523L739.698 442.221Z" fill="#FF697D"/>
<path d="M557.871 239.792L571.904 380.345L602.02 380.156C592.565 319.764 590.354 287.136 588.097 229.611L557.871 239.792Z" fill="#FF697D"/>
<path d="M745.352 413.67C785.98 410.188 807.615 406.645 844.718 398.209" stroke="#FFBBC4" stroke-width="1.13061" stroke-linecap="round" stroke-linejoin="round"/>
<path d="M905.776 216.281C894.407 181.59 887.165 163.586 873.086 133.366" stroke="#FFBBC4" stroke-width="1.13061" stroke-linecap="round" stroke-linejoin="round"/>
</g>
<path d="M743.449 216.402C743.514 205.721 760.407 192.363 760.407 192.363L792.208 219.539C792.208 219.539 779.47 238.576 767.068 238.972C754.515 239.374 743.366 230.018 743.449 216.402Z" fill="#FF697D" stroke="#FFBBC4" stroke-width="1.13061"/>
<path d="M758.725 231.073C751.706 228.092 747.977 220.376 750.002 213.024L757.286 186.579C758.972 180.456 765.37 176.923 771.451 178.757L786.66 183.344C793.768 185.488 796.916 193.785 793.018 200.104L777.628 225.055C773.68 231.456 765.648 234.013 758.725 231.073V231.073Z" fill="#FFBFBE"/>
<path d="M802.267 208.574C815.695 207.434 825.797 197.266 824.831 185.865C823.865 174.464 812.197 166.146 798.769 167.286C785.341 168.427 775.239 178.594 776.204 189.996C777.17 201.397 788.839 209.715 802.267 208.574Z" fill="#76BBF4"/>
<path d="M818.704 185.013C812.3 180.669 802.039 174.755 788.315 171.174C775.419 167.814 766.228 165.436 758.051 170.474C747.892 176.738 743.177 192.091 747.771 204.09C752.649 216.822 766.081 220.828 771.907 222.572C794.599 229.337 820.636 218.429 821.172 209.53C821.532 203.517 810.199 199.726 811.343 192.713C811.993 188.91 815.94 186.403 818.704 185.013Z" fill="#FFD1D1"/>
<ellipse cx="793.389" cy="177.33" rx="8.95147" ry="5.14147" transform="rotate(93.2822 793.389 177.33)" fill="white"/>
<circle cx="792.399" cy="171.9" r="4.64142" transform="rotate(70.6379 792.399 171.9)" fill="#23282E"/>
<ellipse cx="791.217" cy="201.82" rx="8.95147" ry="5.14147" transform="rotate(93.2822 791.217 201.82)" fill="white"/>
<circle cx="789.858" cy="196.672" r="4.64142" transform="rotate(70.6379 789.858 196.672)" fill="#23282E"/>
<path d="M762.016 218.83C762.016 218.83 771.379 223.205 777.826 224.026C783.027 224.688 791.246 223.663 791.246 223.663" stroke="#23282E" stroke-width="1.13061" stroke-linecap="round"/>
<path d="M801.258 196.482C799.592 197.2 800.88 205.934 802.265 206.018C803.316 206.085 805.716 201.119 803.58 198.056C803.096 197.37 801.966 196.178 801.258 196.482Z" fill="#BFC7F3"/>
<path d="M823.126 212.442C818.668 208.751 809.926 200.421 808.928 189.104C808.678 186.244 808.379 182.186 811.091 179.796C814.855 176.503 821.362 179.184 821.713 179.335C822.836 177.083 827.264 168.882 835.584 167.236C837.016 166.951 841.326 166.109 843.259 168.364C845.259 170.721 844.247 175.948 839.985 180.947C847.789 173.789 855.207 170.523 858.309 172.829C859.601 173.793 860.349 175.859 860.401 177.651C860.504 181.581 857.238 184.08 856.832 184.378C859.278 184.247 864.773 184.285 868.215 187.919C873.193 193.151 860.681 203.464 859.189 208.611C854.358 225.353 839.387 247.701 827.342 244.185C815.818 240.855 823.258 214.445 823.126 212.442Z" fill="#BFC7F3"/>
<path d="M859.351 208.101C858.355 210.285 852.706 222.053 846.752 225.766C842.363 228.499 838.175 230.517 835.83 230.744C835.572 232.013 835.323 233.269 835.052 234.528C836.767 234.503 843.787 233.246 849.752 227.641C854.914 222.774 859.041 209.984 859.351 208.101Z" fill="#6EAADD"/>
<path d="M808.599 258.525C825.611 257.079 838.411 244.197 837.187 229.75C835.964 215.304 821.18 204.764 804.167 206.21C787.154 207.655 774.354 220.537 775.578 234.984C776.802 249.43 791.586 259.97 808.599 258.525Z" fill="#76BBF4"/>
<path d="M793.644 189.248C790.456 187.71 786.799 185.519 783.225 182.31C782.262 181.453 781.402 180.595 780.589 179.754C780.091 180.181 779.246 181.052 778.674 182.382C777.974 183.979 778.043 185.403 778.116 186.093" stroke="#23282E" stroke-width="1.13061" stroke-miterlimit="10" stroke-linecap="round" stroke-linejoin="round"/>
<path d="M769.696 177.309C767.433 176.312 764.903 177.559 764.303 179.602C763.749 181.457 764.873 183.646 766.973 184.331" stroke="#23282E" stroke-width="1.13061" stroke-miterlimit="10" stroke-linecap="round" stroke-linejoin="round"/>
<path d="M802.212 185.456C800.648 184.558 802.972 176.038 804.344 176.112C805.405 176.166 807.183 181.381 804.691 184.17C804.147 184.786 802.876 185.834 802.212 185.456Z" fill="#BFC7F3"/>
<path d="M731.201 229.054C717.878 239.639 709.758 245.194 688.385 251.041L695.922 271.939C721.231 271.423 731.111 265.944 744.402 251.017C734.386 244.298 731.723 239.614 731.201 229.054Z" fill="#FF697D"/>
<path d="M680.661 352.034C681.28 352.992 680.329 354.707 678.536 355.866C676.743 357.024 674.788 357.186 674.17 356.228C673.551 355.27 674.502 353.555 676.295 352.397C678.088 351.239 680.042 351.076 680.661 352.034Z" fill="#23282E"/>
<path d="M680.661 352.034C681.28 352.992 680.329 354.707 678.536 355.866C676.743 357.024 674.788 357.186 674.17 356.228C673.551 355.27 674.502 353.555 676.295 352.397C678.088 351.239 680.042 351.076 680.661 352.034ZM680.661 352.034C680.661 352.034 681.192 341.912 681.382 338.294" stroke="#23282E" stroke-width="1.69591" stroke-linecap="round" stroke-linejoin="round"/>
<path d="M693.441 352.705C694.06 353.663 693.108 355.378 691.315 356.536C689.523 357.694 687.568 357.857 686.949 356.899C686.33 355.941 687.281 354.225 689.074 353.067C690.867 351.909 692.822 351.747 693.441 352.705Z" fill="#23282E"/>
<path d="M693.441 352.705C694.06 353.663 693.108 355.378 691.315 356.536C689.523 357.694 687.568 357.857 686.949 356.899C686.33 355.941 687.281 354.225 689.074 353.067C690.867 351.909 692.822 351.747 693.441 352.705ZM693.441 352.705C693.441 352.705 693.85 344.884 694.081 340.493M694.081 340.493C694.117 339.797 694.135 339.459 694.161 338.964L681.48 338.299L681.4 339.827L694.081 340.493Z" stroke="#23282E" stroke-width="1.69591" stroke-linecap="round" stroke-linejoin="round"/>
<path d="M444.987 68.9142C445.1 70.0504 443.468 71.1424 441.341 71.3533C439.215 71.5641 437.4 70.8139 437.287 69.6777C437.175 68.5415 438.807 67.4495 440.933 67.2387C443.06 67.0279 444.875 67.778 444.987 68.9142Z" fill="#23282E"/>
<path d="M444.987 68.9142C445.1 70.0504 443.468 71.1424 441.341 71.3533C439.215 71.5641 437.4 70.8139 437.287 69.6777C437.175 68.5415 438.807 67.4495 440.933 67.2387C443.06 67.0279 444.875 67.778 444.987 68.9142ZM444.987 68.9142C444.987 68.9142 449.29 61.5239 451.115 58.3889M447.57 70.4179C449.429 68.8523 449.92 67.4244 450.096 65.814M450.096 65.814C450.345 63.5422 449.967 60.9071 451.918 57.0094C451.918 57.0094 451.607 57.5446 451.115 58.3889M450.096 65.814L451.115 58.3889" stroke="#23282E" stroke-width="1.69591" stroke-linecap="round" stroke-linejoin="round"/>
<path d="M966.062 469.965C966.412 471.05 965.049 472.461 963.018 473.115C960.986 473.77 959.056 473.421 958.706 472.336C958.356 471.25 959.72 469.839 961.751 469.185C963.782 468.53 965.713 468.879 966.062 469.965Z" fill="#23282E"/>
<path d="M966.062 469.965C966.412 471.05 965.049 472.461 963.018 473.115C960.986 473.77 959.056 473.421 958.706 472.336C958.356 471.25 959.72 469.839 961.751 469.185C963.782 468.53 965.713 468.879 966.062 469.965ZM966.062 469.965C966.062 469.965 969.194 460.325 970.314 456.879" stroke="#23282E" stroke-width="1.69591" stroke-linecap="round" stroke-linejoin="round"/>
<path d="M491.551 460.764C491.901 461.85 490.537 463.261 488.506 463.915C486.475 464.57 484.544 464.221 484.195 463.135C483.845 462.05 485.208 460.639 487.239 459.984C489.27 459.33 491.201 459.679 491.551 460.764Z" fill="#23282E"/>
<path d="M491.551 460.764C491.901 461.85 490.537 463.261 488.506 463.915C486.475 464.57 484.544 464.221 484.195 463.135C483.845 462.05 485.208 460.639 487.239 459.984C489.27 459.33 491.201 459.679 491.551 460.764ZM491.551 460.764C491.551 460.764 494.683 451.125 495.803 447.679" stroke="#23282E" stroke-width="1.69591" stroke-linecap="round" stroke-linejoin="round"/>
<path d="M784.982 87.8408C785.601 88.7987 784.649 90.5141 782.856 91.6723C781.064 92.8305 779.109 92.9928 778.49 92.0348C777.871 91.0769 778.823 89.3615 780.615 88.2033C782.408 87.0452 784.363 86.8828 784.982 87.8408Z" fill="#23282E"/>
<path d="M784.982 87.8408C785.601 88.7987 784.649 90.5141 782.856 91.6723C781.064 92.8305 779.109 92.9928 778.49 92.0348C777.871 91.0769 778.823 89.3615 780.615 88.2033C782.408 87.0452 784.363 86.8828 784.982 87.8408ZM784.982 87.8408C784.982 87.8408 785.512 77.7189 785.702 74.1004" stroke="#23282E" stroke-width="1.69591" stroke-linecap="round" stroke-linejoin="round"/>
<path d="M797.761 88.5113C798.38 89.4692 797.429 91.1847 795.636 92.3428C793.843 93.501 791.889 93.6633 791.27 92.7054C790.651 91.7474 791.602 90.032 793.395 88.8738C795.188 87.7157 797.143 87.5533 797.761 88.5113Z" fill="#23282E"/>
<path d="M797.761 88.5113C798.38 89.4692 797.429 91.1847 795.636 92.3428C793.843 93.501 791.889 93.6633 791.27 92.7054C790.651 91.7474 791.602 90.032 793.395 88.8738C795.188 87.7157 797.143 87.5533 797.761 88.5113ZM797.761 88.5113C797.761 88.5113 798.171 80.6903 798.401 76.2995M798.401 76.2995C798.438 75.6035 798.456 75.266 798.482 74.7709L785.801 74.1052L785.721 75.6337L798.401 76.2995Z" stroke="#23282E" stroke-width="1.69591" stroke-linecap="round" stroke-linejoin="round"/>
<path d="M229.786 138.544C229.843 139.683 228.161 140.693 226.03 140.8C223.898 140.906 222.124 140.07 222.067 138.93C222.01 137.791 223.692 136.782 225.823 136.675C227.955 136.568 229.729 137.405 229.786 138.544Z" fill="#23282E"/>
<path d="M229.786 138.544C229.843 139.683 228.161 140.693 226.03 140.8C223.898 140.906 222.124 140.07 222.067 138.93C222.01 137.791 223.692 136.782 225.823 136.675C227.955 136.568 229.729 137.405 229.786 138.544ZM229.786 138.544C229.786 138.544 235.306 130.043 237.28 127.005" stroke="#23282E" stroke-width="1.69591" stroke-linecap="round" stroke-linejoin="round"/>
<path d="M240.518 145.515C240.575 146.654 238.893 147.664 236.762 147.771C234.63 147.878 232.856 147.041 232.799 145.902C232.742 144.763 234.424 143.753 236.555 143.646C238.687 143.539 240.461 144.376 240.518 145.515Z" fill="#23282E"/>
<path d="M240.518 145.515C240.575 146.654 238.893 147.664 236.762 147.771C234.63 147.878 232.856 147.041 232.799 145.902C232.742 144.763 234.424 143.753 236.555 143.646C238.687 143.539 240.461 144.376 240.518 145.515ZM240.518 145.515C240.518 145.515 244.783 138.947 247.178 135.26M247.178 135.26C247.558 134.675 247.742 134.392 248.012 133.976L237.363 127.059L236.529 128.343L247.178 135.26Z" stroke="#23282E" stroke-width="1.69591" stroke-linecap="round" stroke-linejoin="round"/>
<path d="M808.566 267.439L809.149 289.271M817.585 271.447L821.351 283.217M822.998 266.681L838.144 281.071M799.668 269.708L796.207 279.113M831.534 262.623L839.879 266.357" stroke="#FFDBDB" stroke-width="2.82652" stroke-linecap="round" stroke-linejoin="round"/>
<path d="M813.271 162.605L816.636 147.047M806.078 158.916L805.627 148.027M797.79 162.672L791.056 148.493M822.236 162.206L826.314 156.147" stroke="#FFDBDB" stroke-width="2.82652" stroke-linecap="round" stroke-linejoin="round"/>
<path d="M808.902 255.979C820.347 255.007 828.958 246.339 828.135 236.62C827.311 226.901 817.366 219.809 805.921 220.782C794.475 221.754 785.865 230.421 786.688 240.141C787.511 249.86 797.457 256.951 808.902 255.979Z" fill="#6EAADD"/>
</g>
</svg>
