<svg width="327" height="334" viewBox="0 0 327 334" fill="none" xmlns="http://www.w3.org/2000/svg">
<path d="M227.678 115.645C257.312 147.511 255.503 197.366 223.637 227L116.323 111.605C148.188 81.9708 198.043 83.7798 227.678 115.645Z" fill="#FF997D"/>
<path d="M229.766 116.5L229.632 114.227M160 180.25L229.632 114.227M229.632 114.227C232.727 164.673 227 191 197 220L123 140.5C159.5 114.227 177.243 106.734 229.632 114.227Z" stroke="#E3FFFB" stroke-width="3"/>
<path d="M245.565 273.829L104.728 122.387L116.322 111.605L257.158 263.047C268.201 274.921 256.727 285.831 245.565 273.829Z" fill="#FFC0AE"/>
<mask id="mask0" mask-type="alpha" maskUnits="userSpaceOnUse" x="104" y="111" width="162" height="172">
<path d="M245.57 273.831L104.733 122.389L116.326 111.607L257.163 263.049C268.206 274.923 256.732 285.833 245.57 273.831Z" fill="#FFC0AE"/>
</mask>
<g mask="url(#mask0)">
<path d="M97.9211 112.109L256.21 282.317" stroke="#FF7C8E" stroke-width="6"/>
</g>
<path d="M227.466 116.636C224.681 113.642 222.57 111.078 222.751 110.909L226.148 107.75L236.233 118.594L232.836 121.753C232.655 121.922 230.25 119.631 227.466 116.636Z" fill="#FF697D"/>
<ellipse rx="7.40407" ry="0.447731" transform="matrix(-0.681002 -0.732282 -0.732282 0.681002 231.205 113.158)" fill="#FF7C8E"/>
</svg>
