<svg width="323" height="380" viewBox="0 0 323 380" fill="none" xmlns="http://www.w3.org/2000/svg">
<path d="M232.503 188.832C236.528 197.612 192.107 166.883 169.394 150.42C176.101 133.195 192.899 100.848 206.436 109.262C223.356 119.78 211.466 133.5 210.551 150.42C209.637 167.341 227.472 177.858 232.503 188.832Z" fill="#FF997D"/>
<path d="M98.1363 368C88.1599 367.531 90.4913 319.925 92.904 296.18C102.292 286.702 120.262 270.502 117.044 281.524C113.021 295.301 110.607 368.586 98.1363 368Z" fill="#FF997D"/>
<path d="M45.4452 59.5215C-1.81713 108.472 8.87236 205.106 20.1249 247.305L26.9114 327.426C36.2547 331.196 43.0708 335.763 44.8591 340.357C46.6474 344.952 62.9308 339.278 75.8824 331.196C82.186 333.753 83.8015 332.098 86.1401 328.303C88.9389 330.733 90.3502 331.233 92.3648 327.426C95.8927 326.822 95.5238 325.82 94.669 323.975C94.5996 321.339 96.7087 316.482 105.7 318.148C116.939 320.229 116.658 378.498 128.644 379.203C138.233 379.767 134.153 292.812 130.914 249.264C137.082 245.076 137.543 242.243 136.811 236.92C143.184 230.937 141.715 226.7 138.046 218.953C144.739 214.716 144.306 210.153 141.5 200.943C171.742 172.655 181.229 156.911 197.019 128.856C212.381 140.694 245.31 165.434 254.135 169.696C265.166 175.023 225.133 126.785 231.94 119.386C237.372 113.482 229.962 100.988 221.773 92.2118C223.126 93.6547 246.575 118.415 243.104 97.1507C255.941 122.752 260.621 123.173 267.083 113.652C277.654 140.467 292.867 137.631 286.679 115.787C308.951 139.465 344.069 166.284 306.372 84.1376C259.25 -18.5454 104.523 -1.666 45.4452 59.5215Z" fill="#FFC0AE"/>
<ellipse cx="42.6955" cy="314.331" rx="10.1032" ry="4.65488" transform="rotate(-64.4313 42.6955 314.331)" fill="white"/>
<circle cx="39.386" cy="320.365" r="3.88281" fill="black"/>
<path d="M46.0757 341.582C44.9531 341.632 42.5948 337.393 42.7761 336.859C42.9574 336.325 45.0533 337.114 45.8048 335.507C46.7442 333.498 47.479 341.52 46.0757 341.582Z" fill="#569AD4"/>
<path d="M48.3625 323.346L58.342 307.225" stroke="white" stroke-linecap="round" stroke-linejoin="round"/>
<path d="M52.261 322.721L62.6328 314.332" stroke="white" stroke-linecap="round" stroke-linejoin="round"/>
<path d="M51.4055 326.488L63.1613 321.604" stroke="white" stroke-linecap="round" stroke-linejoin="round"/>
<path d="M71.5266 333.75C69.8767 306.504 69.3283 289.47 69.3283 289.47L74.1999 287.948C74.1999 287.948 74.1999 314.809 75.7206 331.257L71.5266 333.75Z" fill="#569AD4" stroke="#569AD4" stroke-linecap="round" stroke-linejoin="round"/>
<path d="M27.9899 328.759C31.5429 326.232 39.1269 299.692 48.6611 297.173C58.1953 294.655 66.7163 296.362 74.3756 290.634C83.9496 283.474 48.666 241.662 18.6038 271.819C-11.4584 301.977 24.4368 331.286 27.9899 328.759Z" fill="#6EAADD"/>
<path d="M35.589 252.328C30.4838 249.167 28.5973 272.896 28.2921 285.156C41.6976 284.795 45.4261 282.607 50.4814 277.86C47.6444 270.667 40.6941 255.489 35.589 252.328Z" fill="#FF997D"/>
<path d="M52.9676 80.3301L49.4637 71.3652M47.8932 81.4431L42.5996 77.6098" stroke="#FF997D" stroke-width="2" stroke-linecap="round" stroke-linejoin="round"/>
<path d="M23.4463 238.833L13.9358 240.315M21.8553 233.887L15.8791 231.241" stroke="#FF997D" stroke-width="2" stroke-linecap="round" stroke-linejoin="round"/>
<path d="M266.823 65.1326L273.986 71.5613M263.999 69.493L265.729 75.7956" stroke="#FF997D" stroke-width="2" stroke-linecap="round" stroke-linejoin="round"/>
<path d="M83.7962 249.371L90.6857 242.649M80.793 245.132L82.2593 238.763" stroke="#FF997D" stroke-width="2" stroke-linecap="round" stroke-linejoin="round"/>
<path d="M174.46 13.8395L181.35 7.11785M171.457 9.60054L172.923 3.23133" stroke="#FF997D" stroke-width="2" stroke-linecap="round" stroke-linejoin="round"/>
<path d="M141.649 149.452L151.241 148.654M142.031 144.272L147.217 140.293" stroke="#FF997D" stroke-width="2" stroke-linecap="round" stroke-linejoin="round"/>
</svg>
