<svg width="344" height="324" viewBox="0 0 344 324" fill="none" xmlns="http://www.w3.org/2000/svg">
<path d="M81.3095 299.154L88.3242 301.021L97.1808 302.271L94.0953 318.238L76.9676 317.484L81.3095 299.154Z" fill="#FF7C8E"/>
<path d="M97.9663 208.175C97.4464 204.494 98.0857 201.848 99.451 200.26C104.44 194.455 119.122 202.771 122.352 226.334C126.466 256.346 101.381 288.63 88.3242 301.021M88.3242 301.021L81.3095 299.154L76.9676 317.484L94.0953 318.238L97.1808 302.271L88.3242 301.021Z" stroke="#FF7C8E" stroke-width="2" stroke-linecap="round" stroke-linejoin="round"/>
<path d="M100.378 225.673C100.378 225.673 73.5703 240.31 82.2712 256.246C90.9721 272.182 117.78 257.545 117.78 257.545" stroke="#B6BEED" stroke-width="13.5333"/>
<path d="M151.832 175.367C122.409 188.222 107.323 197.249 78.4398 216.248L117.331 273.802C121.362 281.183 183.682 247.5 179.508 239.854L151.832 175.367Z" fill="#6EAADD"/>
<path d="M153.962 220.127L159.211 220.047L160.924 213.333L164.184 221.729L169.295 222.53L164.768 225.325L166.054 232.068L161.426 228.189L155.905 230.002L158.537 224.348L153.962 220.127Z" fill="white"/>
<path d="M150.09 230.238L145.241 228.357L142.77 231.75L140.881 225.521L136.277 223.162L140.82 223.151L140.532 218.638L144.282 222.664L149.612 223.606L146.435 226.027L150.09 230.238Z" fill="white"/>
<path d="M142.56 236.984L143.563 243.496L135.615 247.024L146.687 249.297L148.751 255.453L151.26 249.266L159.874 249.442L154.102 244.529L155.188 237.317L148.744 241.76L142.56 236.984Z" fill="white"/>
<path d="M81.3095 299.154L88.3242 301.021L97.1808 302.271L94.0953 318.238L76.9676 317.484L81.3095 299.154Z" fill="#FF7C8E"/>
<path d="M88.3242 301.021C101.381 288.63 126.466 256.346 122.352 226.334C119.122 202.771 104.44 194.455 99.451 200.26M88.3242 301.021L81.3095 299.154L76.9676 317.484L94.0953 318.238L97.1808 302.271L88.3242 301.021Z" stroke="#FF7C8E" stroke-width="2" stroke-linecap="round" stroke-linejoin="round"/>
<path d="M178.054 128.986C176.128 123.171 175.42 112.652 187.993 117.087" stroke="#9BA5DC" stroke-width="2"/>
<path d="M197.935 139.456C197.935 139.456 228.148 134.979 230.809 152.94C233.47 170.901 203.257 175.377 203.257 175.377" stroke="#FF997D" stroke-width="13.5333"/>
<path d="M125.943 129.425C158.945 121.625 177.335 119.162 210.042 116.966L213.412 188.08C214.645 196.399 144.614 207.078 143.337 198.462L125.943 129.425Z" fill="#FFEAC1"/>
<mask id="mask0" mask-type="alpha" maskUnits="userSpaceOnUse" x="125" y="116" width="89" height="86">
<path d="M125.943 129.426L210.042 116.966L213.412 188.08C214.645 196.399 144.614 207.079 143.337 198.462L125.943 129.426Z" fill="#FFEAC1"/>
</mask>
<g mask="url(#mask0)">
<path d="M121.95 151.947C89.1101 149.199 131.404 175.174 156.756 188.457C177.167 168.394 210.213 131.256 179.581 143.409C166.609 148.555 157.801 152.65 151.966 155.785C145.473 154.477 135.857 153.111 121.95 151.947Z" fill="#FF7C8E"/>
</g>
<path d="M127.127 95.5461C109.591 89.4331 142.309 112.501 153.237 115.435C164.165 118.37 173.758 111.761 165.176 110.499C154.45 108.92 147.497 103.417 158.123 90.9539C168.749 78.4907 150.13 66.4008 127.356 65.0234C104.583 63.646 116.508 71.9762 131.023 72.3994C145.538 72.8226 149.047 103.187 127.127 95.5461Z" fill="#FEFEFE"/>
<path d="M74.8416 165.906C60.9963 165.17 88.4525 176.455 98.0107 180.434C107.569 184.414 132.752 174.224 118.314 175.354C103.877 176.484 92.7818 170.376 104.401 160C116.021 149.624 105.208 148.478 84.3146 143.215C63.4207 137.952 43.4245 146.781 56.8351 149.845C70.2457 152.909 88.6869 166.642 74.8416 165.906Z" fill="#FEFEFE"/>
<path d="M279.147 184.1L273.085 200.533L294.991 200.929L299.697 185.181L279.147 184.1Z" fill="#9BA5DC"/>
<path d="M187.994 117.087C203.71 122.631 195.414 181.343 225.202 188.582C249.033 194.374 269.258 192.876 276.392 191.402M273.085 200.533L279.147 184.1L299.697 185.181L294.991 200.929L273.085 200.533Z" stroke="#9BA5DC" stroke-width="2" stroke-linejoin="round"/>
</svg>
