<svg width="511" height="444" viewBox="0 0 511 444" fill="none" xmlns="http://www.w3.org/2000/svg">
<path d="M165.625 379.568C172.319 361.009 131.143 228.317 131.143 228.317C131.143 228.317 126.419 327.6 165.625 379.568Z" fill="#76BBF4"/>
<path d="M165.957 374.033C174.877 356.436 155.044 235.937 150.297 219.694C145.551 203.452 133.425 317.647 165.957 374.033Z" fill="#BDF4EC"/>
<path d="M169.699 350.027C157.551 334.481 155.286 195.567 155.286 195.567C155.286 195.567 190.74 288.423 169.699 350.027Z" fill="#76BBF4"/>
<path d="M152.903 362.694C158.499 343.775 117.236 228.838 109.635 213.719C102.033 198.6 110.725 313.108 152.903 362.694Z" fill="#BDF4EC"/>
<path d="M171.48 349.564C165.02 338.333 176.399 247.809 176.399 247.809C176.399 247.809 190.859 311.459 171.48 349.564Z" fill="#AAE8DF"/>
<path d="M157.076 359.387C157.764 346.449 106.706 270.837 106.706 270.837C106.706 270.837 122.569 334.152 157.076 359.387Z" fill="#AAE8DF"/>
<path d="M122.932 329.207C132.393 318.376 153.413 353.793 152.726 365.707C147.504 359.896 139.602 343.725 130.479 340.461C121.356 337.198 114.219 364.113 111.79 377.979C111.562 366.235 113.472 340.038 122.932 329.207Z" fill="#76BBF4"/>
<path d="M172.712 334.761C175.844 320.725 189.002 323.589 199.306 322.83C209.61 322.071 189.602 325.177 184.429 332.945C174.447 347.934 181.68 369.395 186.18 382.748L186.24 382.926C180.426 372.719 169.58 348.796 172.712 334.761Z" fill="#76BBF4"/>
<path d="M151.601 392.691L142.968 359.352L186.636 347.999L195.085 381.68L151.601 392.691Z" fill="#BFC7F3"/>
<path d="M187.334 339.641L138.295 352.39L141.043 362.962L190.083 350.213L187.334 339.641Z" fill="#9BA5DC"/>
<path d="M238.009 146.259C231.345 135.026 199.335 107.942 184.164 95.8038C204.738 101.643 246.785 116.975 250.376 131.591C253.796 145.511 248.315 163.517 244.71 171.881C260.866 177.8 267.842 187.216 269.38 191.912C273.989 197.297 261.776 251.43 254.176 281.552C265.739 249.967 289.107 190.583 305.129 163.347C308.111 158.278 310.839 154.322 313.189 151.866C328.318 136.057 380.504 117.685 404.707 110.475C394.557 123.934 370.312 152.028 354.534 156.734C338.756 161.441 315.023 163.104 305.129 163.347C289.107 190.583 265.739 249.967 254.176 281.552C261.776 251.43 273.989 197.297 269.38 191.912C267.124 189.277 257.888 184.295 244.585 180.685C222.244 174.62 188.433 172.421 156.959 191.691C172.187 181.962 208.758 163.739 233.218 168.677C237.219 169.485 240.828 170.497 244.075 171.652C243.218 161.212 241.406 151.986 238.009 146.259Z" fill="#FFE2AB"/>
<path d="M371.689 264.986C366.438 204.719 343.962 198.353 333.38 202.703C336.684 211.464 345.675 230.792 355.209 238.022C364.743 245.253 370.168 259.011 371.689 264.986Z" fill="#FFE2AB"/>
<path d="M250.144 281.928C247.52 268.024 242.558 235.732 243.704 217.801C244.526 204.937 245.272 187.899 244.185 173.061M244.185 173.061C243.377 162.045 241.558 152.242 238.009 146.259C231.345 135.026 199.335 107.942 184.164 95.8038C204.738 101.643 246.785 116.975 250.376 131.591C253.967 146.207 247.745 165.328 244.185 173.061ZM256.565 283.301C282.037 223.803 295.563 185.771 333.38 202.703M333.38 202.703C343.962 198.353 366.438 204.719 371.689 264.986C370.168 259.011 364.743 245.253 355.209 238.022C345.675 230.792 336.684 211.464 333.38 202.703ZM253.756 282.7C265.165 251.427 288.911 190.917 305.129 163.347M305.129 163.347C308.111 158.278 310.839 154.322 313.189 151.866C328.318 136.057 380.505 117.685 404.707 110.475C394.557 123.934 370.312 152.028 354.534 156.734C338.756 161.441 315.023 163.104 305.129 163.347ZM253.093 285.804C260.537 256.861 274.215 197.562 269.38 191.912M269.38 191.912C263.335 184.85 207.173 160.947 156.959 191.691C172.187 181.962 208.758 163.739 233.218 168.677C257.678 173.615 267.518 186.225 269.38 191.912Z" stroke="#FFE2AB" stroke-width="4" stroke-linecap="round" stroke-linejoin="round"/>
<path d="M243.167 155.158C251.235 170.544 252.331 247.696 251.871 284.349L279.887 153.246C276.624 146.982 272.761 125.105 283.415 87.7099C294.07 50.3147 305.757 33.3577 310.269 29.5536C311.782 44.9765 313.7 79.972 309.265 96.5715C304.83 113.171 287.832 141.271 279.887 153.246L251.871 284.349C252.331 247.696 251.235 170.544 243.167 155.158C235.1 139.771 199.107 86.7836 182.12 62.2129C195.03 68.2246 223.21 85.1437 232.652 104.727C242.094 124.31 243.596 146.507 243.167 155.158Z" fill="#BDF4EC"/>
<path d="M351.765 178.364C315.075 177.355 276.595 250.035 261.942 286.501C276.271 240.916 310.996 150.683 338.307 143.52C338.628 142.899 339.631 142.836 340.849 143.096C375.422 140.725 463.7 169.349 478.163 221.233C455.931 215.669 402.912 198.077 368.692 172.223C342.841 152.692 337.317 145.441 338.307 143.52C310.996 150.683 276.271 240.916 261.942 286.501C276.595 250.035 315.075 177.355 351.765 178.364C388.455 179.374 411.186 231.317 417.965 257.162C402.696 247.8 369.993 224.588 361.338 206.636C352.682 188.685 351.35 180.309 351.765 178.364Z" fill="#BDF4EC"/>
<path d="M243.167 155.158C251.235 170.544 252.331 247.696 251.871 284.349L279.887 153.246M243.167 155.158C235.1 139.771 199.107 86.7836 182.12 62.2129C195.03 68.2246 223.21 85.1437 232.652 104.727C242.094 124.31 243.596 146.507 243.167 155.158ZM351.765 178.364C315.075 177.355 276.595 250.035 261.942 286.501C276.72 239.489 313.19 144.992 340.849 143.096M351.765 178.364C388.455 179.374 411.186 231.317 417.965 257.162C402.696 247.8 369.993 224.588 361.338 206.636C352.682 188.685 351.35 180.309 351.765 178.364ZM340.849 143.096C375.422 140.725 463.7 169.349 478.163 221.233C455.931 215.669 402.912 198.077 368.692 172.223C334.471 146.369 335.871 142.032 340.849 143.096ZM279.887 153.246C276.624 146.982 272.761 125.105 283.415 87.7099C294.07 50.3147 305.757 33.3577 310.269 29.5536C311.782 44.9765 313.7 79.972 309.265 96.5715C304.83 113.171 287.832 141.271 279.887 153.246Z" stroke="#BDF4EC" stroke-width="4" stroke-linecap="round" stroke-linejoin="round"/>
<path d="M340.873 157.01C327.901 168.291 279.219 245.576 256.5 282.807L256.36 270.598L256.183 255.178C254.732 222.537 249.256 180.02 234.508 160.844C224.351 165.235 202.243 146.952 152.657 101.515C198.62 107.606 212.351 125.713 234.508 160.844C249.256 180.02 254.732 222.537 256.183 255.178L255.023 154.071C233.27 125.323 243.061 105.718 284.594 66.9528C284.594 66.9528 289.87 104.659 279.465 125.127C272.901 138.038 255.023 154.071 255.023 154.071L256.183 255.178C256.412 260.342 256.541 265.26 256.59 269.798L293.156 142.696C288.64 136.617 288.653 122 324.835 112.16C361.017 102.32 374.718 100.855 377.046 101.352C359.846 113.586 322.037 139.144 308.398 143.512C294.76 147.881 292.554 144.788 293.156 142.696L256.59 269.798C256.642 274.613 256.603 279.002 256.5 282.807C279.219 245.576 327.901 168.291 340.873 157.01C340.325 153.599 341.988 144.22 353.032 133.991C363.31 124.471 399.059 126.459 419.162 129.043C420.876 129.075 422.302 129.264 423.381 129.627C422.073 129.432 420.661 129.236 419.162 129.043C401.933 128.72 355.621 144.185 340.873 157.01Z" fill="#AAE8DF"/>
<path d="M256.5 282.807C279.219 245.576 327.901 168.291 340.873 157.01M256.5 282.807C257.318 252.749 254.065 186.274 234.508 160.844M256.5 282.807L255.023 154.071M340.873 157.01C357.089 142.909 411.462 125.616 423.381 129.627C404.533 126.819 364.076 123.761 353.032 133.991C341.988 144.22 340.325 153.599 340.873 157.01ZM234.508 160.844C212.351 125.713 198.62 107.606 152.657 101.515C202.243 146.952 224.351 165.235 234.508 160.844ZM255.023 154.071C233.27 125.323 243.061 105.718 284.594 66.9528C284.594 66.9528 289.871 104.659 279.465 125.127C272.901 138.038 255.023 154.071 255.023 154.071ZM252.146 285.245L293.156 142.696M293.156 142.696C288.64 136.617 288.653 122 324.835 112.16C361.017 102.32 374.718 100.855 377.046 101.352C359.846 113.586 322.037 139.144 308.398 143.512C294.76 147.881 292.554 144.788 293.156 142.696Z" stroke="#AAE8DF" stroke-width="4" stroke-linecap="round" stroke-linejoin="round"/>
<path d="M213.171 334.134L207.562 245.653L311.546 267.873L271.322 346.561L213.171 334.134Z" fill="#FF997D"/>
<path d="M321.845 251.001L205.069 226.047L199.689 251.222L316.465 276.176L321.845 251.001Z" fill="#FFC0AE"/>
</svg>
