<svg width="105" height="28" viewBox="0 0 105 28" fill="none" xmlns="http://www.w3.org/2000/svg">
<path d="M69.8507 14.0576C69.8507 16.3121 68.024 18.1387 65.7696 18.1387V14.0576H69.8507Z" fill="#FF3D00"/>
<path d="M61.6926 14.0567C61.6926 11.8023 63.5193 9.97559 65.7738 9.97559V14.0567H61.6926Z" fill="#F8F8F8"/>
<path d="M65.7714 9.97754C68.0259 9.97754 69.8526 11.8042 69.8526 14.0587H65.7714V9.97754Z" fill="#3848D8"/>
<path d="M65.7733 18.1387C63.5188 18.1387 61.6921 16.3121 61.6921 14.0576H65.7733V18.1387Z" fill="#FFDB73"/>
<path d="M20.3862 14.0946C20.3862 11.8555 21.3176 10.0463 23.5567 10.0463C25.7958 10.0463 26.7272 11.8555 26.7272 14.0946V20.6685H29.5216V13.2975C29.5216 11.551 30.9008 10.0732 32.6473 10.0553C34.9222 10.0195 35.8357 11.8466 35.8357 14.1035V20.6237H38.4509V14.014C38.4509 9.89409 36.3641 7.15349 32.5756 7.15349C30.3814 7.15349 29.3156 8.17449 28.0617 9.7687L28.0438 9.74184C28.0438 9.73289 28.0259 9.72392 28.0259 9.71497C26.9063 8.12076 25.7152 7.14453 23.5567 7.14453C22.258 7.14453 21.2549 7.67294 20.3772 8.47005V7.48486H17.5829V20.6595H20.3772L20.3862 14.0946Z" fill="#111111"/>
<path d="M88.3558 9.207C87.1019 7.9173 85.3465 7.11123 83.4119 7.12019C79.6234 7.12915 76.5604 10.2101 76.5694 13.9986C76.5783 17.7871 79.6593 20.8501 83.4477 20.8411C85.3733 20.8322 87.1019 20.044 88.3468 18.7633L86.4481 16.8914C85.7137 17.6348 84.6927 18.1005 83.5642 18.1095C81.3251 18.1185 79.507 16.3093 79.507 14.0702C79.498 11.8312 81.3072 10.0131 83.5463 10.0131C84.6658 10.0131 85.6779 10.4609 86.4123 11.1953L88.3558 9.207Z" fill="#111111"/>
<path d="M96.5356 20.0515L93.4905 27.1269L96.6162 27.118L104.999 7.40527L102.053 7.41424L98.2373 16.5138L94.189 7.43215L91.0723 7.4411L96.5356 20.0515Z" fill="#111111"/>
<path d="M49.3625 7.09334C47.9295 7.09334 46.604 7.5322 45.5113 8.27557L45.5024 0C45.5024 0 42.8065 0 42.4752 0C42.1438 0 42.4752 20.671 42.4752 20.671H45.4397V19.5783C46.5503 20.3575 47.9026 20.8143 49.3625 20.8143C53.151 20.8143 56.223 17.7423 56.223 13.9538C56.214 10.1653 53.142 7.09334 49.3625 7.09334ZM49.4879 18.0827C47.2488 18.0827 45.4397 16.2735 45.4397 14.0344C45.4397 11.7954 47.2488 9.98621 49.4879 9.98621C51.727 9.98621 53.4197 11.7954 53.4197 14.0344C53.4197 16.2645 51.718 18.0827 49.4879 18.0827Z" fill="#111111"/>
<path d="M69.6381 7.44207V7.91675L69.647 8.24813C68.5544 7.51372 67.2468 7.09277 65.8317 7.09277C62.0432 7.09277 58.9712 10.1648 58.9712 13.9533C58.9712 17.7418 62.0432 20.8137 65.8317 20.8137C67.2647 20.8137 68.5902 20.3749 69.6918 19.6226V20.7421H72.7369V7.44207H69.6381ZM65.7421 18.0821C63.5031 18.0821 61.6939 16.2729 61.6939 14.0339C61.6939 11.7948 63.5031 9.98564 65.7421 9.98564C67.9812 9.98564 69.7903 11.7948 69.7903 14.0339C69.7993 16.264 67.9812 18.0821 65.7421 18.0821Z" fill="#111111"/>
<path d="M14.1375 13.9272C14.1375 10.1208 11.0834 7.15625 7.66213 7.15625C3.81094 7.15625 0.703125 10.067 0.703125 13.9272C0.703125 17.7873 3.82885 20.9041 7.68004 20.9041C9.58772 20.9041 11.3252 20.1338 12.5791 18.8889L10.4744 16.7842C9.74893 17.5544 8.71896 18.0381 7.57256 18.0381C5.66488 18.0381 4.01693 16.7036 3.62286 14.9124H14.0748C14.1196 14.5989 14.1375 14.2585 14.1375 13.9272ZM3.79303 12.5121C4.35727 11.0164 5.70966 10.076 7.42031 10.076C9.25634 10.076 10.4565 11.0433 11.0207 12.5121H3.79303Z" fill="#111111"/>
</svg>
