<svg width="870" height="1298" viewBox="0 0 870 1298" fill="none" xmlns="http://www.w3.org/2000/svg">
<path d="M623.9 328.723L647.08 268.142L687.115 271.83L680.266 343.473C680.268 368.233 614.943 349.795 623.9 328.723Z" fill="#FFD1D1"/>
<mask id="mask0" mask-type="alpha" maskUnits="userSpaceOnUse" x="623" y="268" width="65" height="88">
<path d="M623.898 328.723L647.078 268.142L687.113 271.83L680.265 343.473C680.266 368.232 614.941 349.795 623.898 328.723Z" fill="#FFD1D1"/>
</mask>
<g mask="url(#mask0)">
<path d="M616.074 365.737L633.692 277.384L698.423 308.045L672.441 380.487C672.442 405.246 607.117 386.808 616.074 365.737Z" fill="#FFBFBE"/>
</g>
<path d="M605.472 232.415C602.689 239.376 621.818 249.038 631.729 253.813V231.639C626.954 230.648 608.255 225.454 605.472 232.415Z" fill="#FFD1D1"/>
<path d="M678.439 136.601L681.431 150.433L599.415 173.788L597.364 160.294C606.834 155.837 614.194 157.981 616.045 165.928C615.893 165.265 613.452 154.207 619.122 152.552C635.169 147.868 678.439 136.601 678.439 136.601Z" fill="#23282E"/>
<path d="M686.194 159.613L600.337 178.311L642.514 311.379C646.611 322.295 704.113 309.46 703.17 298.169L686.194 159.613Z" fill="#FFF5DD"/>
<ellipse cx="677.2" cy="225.919" rx="13.3594" ry="30.5326" transform="rotate(-9.54771 677.2 225.919)" fill="#23282E"/>
<path d="M592.672 181.347L692 158.714L683.432 147.763L594.616 168.955L592.672 181.347Z" fill="#AAE8DF"/>
<path d="M774.181 248.274C765.711 257.651 707.935 274.288 701.068 281.009L693.449 218.857C693.176 217.469 667.928 228.664 663.382 223.299C658.836 217.935 691.821 199.205 698.816 199.79C705.81 200.375 714.544 213.354 714.544 213.354C713.991 211.747 748.86 178.777 759.503 170.001C770.146 161.225 779.37 162.364 778.1 167.345C776.829 172.325 735.394 214.965 718.889 233.991C727.271 224.997 764.471 197.455 771.929 193.496C779.387 189.538 788.594 192.355 784.778 196.724C775.375 207.494 737.781 242.987 722.376 252.712C735.131 247.755 754.025 245.334 762.977 243.617C771.929 241.9 777.242 244.884 774.181 248.274Z" fill="#FFD1D1"/>
<path d="M363.672 1053.71C362.944 1038 316.09 1016.53 302.643 1028.25C289.196 1039.97 226.913 1116.78 226.913 1116.78L267.62 1141.07L291.223 1113.85L309.369 1121.82L288.968 1152.58L430.402 1241.07C446.447 1218.07 466.633 1165.7 419.02 1140.23C371.407 1114.76 364.399 1069.41 363.672 1053.71Z" fill="#FF7C8E"/>
<path d="M642.004 645.793C628.77 637.303 584.156 663.109 585.939 680.856C587.722 698.603 614.364 793.836 614.364 793.836L657.725 774.677L649.171 739.682L666.165 729.485L679.462 763.919L833.449 699.714C823.962 673.321 792.909 626.563 744.596 650.677C696.282 674.79 655.238 654.283 642.004 645.793Z" fill="#FF7C8E"/>
<path d="M597.602 775.113L868.91 659.127" stroke="#E3FFFB" stroke-width="5"/>
<path d="M315.94 1034.83L340.23 974.746L389.007 973.543L352.974 1047.96C347.747 1060.66 312.05 1043.61 315.94 1034.83Z" fill="#FFD1D1"/>
<path d="M283 1123.5L279.5 1127.5L238 1103L241 1099.5L283 1123.5Z" fill="white"/>
<path d="M437.5 1229L297.5 1139.5L300 1135.5L439.5 1225L437.5 1229Z" fill="white"/>
<path d="M598.835 669.092L573.486 609.446L607.104 574.083L634.294 652.165C639.01 664.218 601.773 677.734 598.835 669.092Z" fill="#FFD1D1"/>
<mask id="mask1" mask-type="alpha" maskUnits="userSpaceOnUse" x="561" y="568" width="90" height="110">
<path d="M598.834 669.092L573.485 609.446L607.103 574.083L634.293 652.166C638.508 664.04 601.614 677.987 598.834 669.092Z" fill="#FFD1D1"/>
</mask>
<g mask="url(#mask1)">
<path d="M567.865 627.58L526.004 529.083L581.519 470.687L626.42 599.628C639.902 635.596 578.587 658.413 567.865 627.58Z" fill="#FFBFBE"/>
</g>
<path d="M408.355 248.242C364.926 267.478 292.501 362.01 177.31 523.492C62.1182 684.975 297.529 710.263 355.002 741.981C412.474 773.7 313.872 962.444 313.872 962.444C330.086 985.766 354.519 992.352 391.648 999.892C391.648 999.892 566.596 811.473 554.253 726.632C541.91 641.79 407.637 549.617 407.637 549.617C407.637 549.617 448.218 468.574 479.607 483.083C510.997 497.592 566.448 632.425 566.448 632.425C599.025 632.425 620.389 620.738 634.479 604.336C595.722 472.576 527.71 301.779 506.848 263.585C485.986 225.391 451.785 229.006 408.355 248.242Z" fill="#6EAADD"/>
<mask id="mask2" mask-type="alpha" maskUnits="userSpaceOnUse" x="145" y="234" width="490" height="766">
<path d="M408.355 248.242C364.926 267.478 292.501 362.01 177.31 523.492C62.1182 684.975 297.529 710.263 355.002 741.981C412.474 773.7 313.872 962.444 313.872 962.444C330.086 985.766 354.519 992.352 391.648 999.892C391.648 999.892 566.596 811.473 554.253 726.632C541.91 641.79 407.637 549.617 407.637 549.617C407.637 549.617 448.218 468.574 479.607 483.083C510.997 497.592 566.448 632.425 566.448 632.425C599.025 632.425 620.389 620.738 634.479 604.336C595.722 472.576 527.71 301.779 506.848 263.585C485.986 225.391 451.785 229.006 408.355 248.242Z" fill="#569AD4"/>
</mask>
<g mask="url(#mask2)">
<path d="M407.65 549.662C407.193 550.4 327.931 715.938 186.616 675.355L276.551 989.965L487.965 1067.1C531.771 946.634 617.099 699.985 607.957 677.13C598.814 654.274 480.781 582.628 422.907 549.662C417.974 549.416 408.016 549.071 407.65 549.662Z" fill="#569AD4"/>
<path d="M279.405 563.406C240.947 582.531 223.209 587.446 195.393 590.41C182.141 613.413 161.833 660.32 186.616 663.921C211.4 667.521 262.302 651.919 284.655 643.668C288.45 612.554 290.777 595.119 279.405 563.406Z" fill="#569AD4"/>
<path d="M648.328 544.852C647.276 555.226 590.895 605.383 554.627 610.951L535.016 587.707L601.115 520.882C621.211 523.303 648.328 544.852 648.328 544.852Z" fill="#569AD4"/>
<mask id="mask3" mask-type="alpha" maskUnits="userSpaceOnUse" x="174" y="520" width="475" height="548">
<path d="M407.652 549.661C407.195 550.4 327.932 715.938 186.618 675.355L276.553 989.964L487.966 1067.1C531.773 946.634 617.1 699.985 607.958 677.129C598.815 654.274 480.782 582.628 422.908 549.661C417.975 549.415 408.017 549.071 407.652 549.661Z" fill="#569AD4"/>
<path d="M279.406 563.406C240.948 582.531 223.21 587.446 195.394 590.41C182.142 613.413 161.834 660.32 186.618 663.92C211.401 667.521 262.303 651.919 284.657 643.667C288.452 612.554 290.778 595.118 279.406 563.406Z" fill="#569AD4"/>
<path d="M648.329 544.852C647.277 555.226 590.896 605.383 554.629 610.95L535.017 587.707L601.116 520.881C621.212 523.303 648.329 544.852 648.329 544.852Z" fill="#569AD4"/>
</mask>
<g mask="url(#mask3)">
<path d="M340.762 610.351C381.585 636.495 463.505 696.765 464.605 728.689C465.706 760.613 407.27 899.775 377.915 965.366" stroke="white" stroke-width="2" stroke-linecap="round" stroke-linejoin="round" stroke-dasharray="10 10"/>
</g>
</g>
<path d="M468.857 478.324C450.825 476.32 416.556 528.908 407.707 549.689C433.279 571.248 472.951 606.674 537.609 603.131C618.432 598.703 707.141 395.516 700.498 360.087C693.855 324.658 598.04 319.159 565.932 320.266C533.824 321.373 567.753 390.905 537.609 445.783C507.466 500.66 486.89 480.327 468.857 478.324Z" fill="#B6BEED"/>
<mask id="mask4" mask-type="alpha" maskUnits="userSpaceOnUse" x="407" y="320" width="294" height="284">
<path d="M468.857 478.324C450.825 476.32 416.556 528.908 407.707 549.689C433.279 571.248 472.951 606.674 537.609 603.131C618.432 598.703 707.141 395.516 700.498 360.087C693.855 324.658 598.04 319.159 565.932 320.266C533.824 321.373 567.753 390.905 537.609 445.783C507.466 500.66 486.89 480.327 468.857 478.324Z" fill="#B6BEED"/>
</mask>
<g mask="url(#mask4)">
<path d="M502.939 475.73C465.061 490.737 420.36 552.55 427.677 583.808L375.793 561.963L442.695 451.37L502.939 475.73Z" fill="#9BA5DC"/>
<path d="M548.093 347.377C581.592 346.325 644.337 351.685 675.371 364.163C688.709 369.526 695.272 383.748 698.536 399.242" stroke="white" stroke-width="4"/>
<path d="M542.941 391.256C575.642 398.6 635.061 419.457 661.997 439.289C673.574 447.812 676.378 463.222 675.67 479.041" stroke="#9BA5DC" stroke-width="4"/>
<path d="M519.529 429.8C549.787 444.214 603.101 477.729 624.968 503.04C634.366 513.919 633.683 529.567 629.484 544.835" stroke="#9BA5DC" stroke-width="4"/>
<path d="M502.177 451.644C520.96 479.401 549.943 535.309 555.971 568.21C558.561 582.351 550.044 595.496 538.688 606.531" stroke="#9BA5DC" stroke-width="4"/>
<path d="M483.566 435.754C483.301 469.269 475.477 531.754 461.788 562.273C455.905 575.391 441.436 581.39 425.825 584.041" stroke="#9BA5DC" stroke-width="4"/>
</g>
<path d="M540.659 991.59C513.387 997.044 319.454 943.505 249.468 930.458L154.807 944.186L390.353 1050.36L540.659 991.59Z" fill="#BDF4EC"/>
<path d="M541.381 980.736C514.321 987.159 318.603 940.563 248.196 930.018L154.085 947.11L393.264 1044.82L541.381 980.736Z" fill="#E3FFFB"/>
<path d="M558.583 950.114C534.028 957.326 344.548 924.686 277.179 918.611L191.109 938.914L427.868 1015.96L558.583 950.114Z" fill="#BDF4EC"/>
<path d="M554.645 915.065C528.977 925.774 328.303 911.405 257.118 912.372L167.003 944.441L418.825 1002.24L554.645 915.065Z" fill="#AAE8DF"/>
<path d="M443.986 924.384L453.168 924.796M453.168 924.796L482.328 927.819C482.328 927.819 472.98 934.325 461.954 933.38C450.928 932.435 453.168 924.796 453.168 924.796ZM453.906 945.559L466.631 937.742L449.444 934.714M421.776 937.804L432.258 931.687L449.444 934.714M449.444 934.714L438.375 941.156M448.193 949.433C448.193 949.433 440.723 951.22 434.545 950.492C428.366 949.765 435.823 944.16 435.823 944.16C435.823 944.16 424.958 949.423 416.941 947.631C408.925 945.839 418.355 940.633 418.355 940.633M404.971 949.332L421.718 952.713M438.464 956.095L421.718 952.713M421.718 952.713L417.115 955.426M417.115 955.426C417.115 955.426 403.436 950.062 398.127 954.019C392.819 957.977 406.178 962.235 411.678 963.346C417.178 964.457 424.249 965.884 427.481 963.242C430.712 960.6 417.115 955.426 417.115 955.426ZM390.989 959.168L413.921 971.242L383.85 963.951L405.691 976.485L375.698 969.413M388.432 987.666L401.157 979.849L383.971 976.822M356.302 979.912L366.784 973.794L383.971 976.822M383.971 976.822L372.901 983.263" stroke="white" stroke-width="2" stroke-linecap="round" stroke-linejoin="round"/>
<path d="M166.936 1026.14C157.804 1028.48 149.57 947.732 144.708 923.603L189.525 996.415C193.077 1010.56 200.649 1034.85 193.506 1042.05C186.363 1049.24 173.927 1002.07 173.927 1002.07C173.927 1002.07 176.067 1023.8 166.936 1026.14Z" fill="#FFBFBE"/>
<path d="M126.788 897.735C119.805 889.889 98.4651 743.371 84.7998 736.285L168.43 723.511C176.401 730.141 137.051 853.851 149.681 858.625C165.468 864.593 181.034 879.405 192.917 893.648C204.799 907.891 243.55 932.644 230.025 941.239C220.797 947.103 205.338 926.188 197.279 921.191C189.219 916.194 181.473 927.117 181.431 934.699C181.388 942.281 189.768 951.496 202.126 953.143C214.483 954.791 215.614 936.231 223.231 945.781C230.849 955.331 223.165 966.162 213.588 970.287C204.011 974.412 195.094 973.58 191.063 970.295C202.061 987.333 225.62 1020.57 228.109 1025.7C231.22 1032.12 232.363 1041.87 223.081 1038.01C213.8 1034.15 179.763 991.186 165.169 968.76C150.575 946.333 135.516 907.542 126.788 897.735Z" fill="#FFD1D1"/>
<mask id="mask5" mask-type="alpha" maskUnits="userSpaceOnUse" x="32" y="693" width="301" height="354">
<path d="M126.788 897.734C119.805 889.889 98.4655 743.37 84.8001 736.285L168.43 723.511C176.402 730.14 137.052 853.85 149.681 858.624C165.468 864.592 181.035 879.404 192.917 893.647C204.799 907.891 225.903 913.612 212.378 922.207C203.15 928.071 205.339 926.188 197.279 921.191C189.219 916.194 181.474 927.117 181.431 934.699C181.388 942.281 189.769 951.495 202.126 953.143C214.483 954.79 215.614 936.231 223.232 945.781C230.849 955.33 223.166 966.162 213.588 970.287C204.011 974.412 195.094 973.579 191.063 970.295C202.061 987.332 225.62 1020.57 228.109 1025.7C231.22 1032.12 232.363 1041.87 223.082 1038.01C213.801 1034.15 179.763 991.185 165.17 968.759C150.576 946.333 135.517 907.541 126.788 897.734Z" fill="#FFD1D1"/>
</mask>
<g mask="url(#mask5)">
<path d="M99.9127 870.587C99.9127 870.587 87.5446 750.556 82.6834 726.428L141.081 677.476L199.044 835.578C161.228 851.486 135.851 863.868 99.9127 870.587Z" fill="#FFBFBE"/>
<path d="M541.383 980.736C514.322 987.159 318.604 940.563 248.198 930.018L154.087 947.11L393.265 1044.82L541.383 980.736Z" fill="#E3FFFB"/>
<path d="M554.645 915.064C528.978 925.774 328.304 911.405 257.118 912.372L167.004 944.441L418.826 1002.24L554.645 915.064Z" fill="#AAE8DF"/>
</g>
<path d="M108.914 126.594C115.618 107.066 135.804 97.0702 149.65 95.9912L224.003 142.212C224.003 142.212 263.105 127.751 286.48 140.005C309.855 152.26 308.832 176.846 308.832 176.846C344.61 176.103 352.806 201.894 332.263 224.598L179.519 310.977C162.269 309.348 116.701 290.539 109.075 264.861C101.448 239.183 98.2943 185.773 115.894 176.82C106.038 172.686 102.959 143.938 108.914 126.594Z" fill="#FF997D"/>
<path d="M220.164 152.876L215.187 158.106C195.061 179.26 172.681 155.865 191.759 135.815L196.735 130.585L220.164 152.876Z" fill="#FFBFBE"/>
<circle cx="202.482" cy="158.542" r="2.28357" transform="rotate(-7.90973 202.482 158.542)" fill="#23282E"/>
<path d="M49.5984 826.409C51.0012 919.145 203.069 826.529 199.942 790.679C196.816 754.828 201.035 597.35 222.737 526.348C244.44 455.345 323.568 296.126 409.336 247.849L409.224 247.541C404.694 234.991 401.981 227.477 384.191 212.228C361.771 193.012 218.714 141.768 141.848 231.445C64.982 321.122 48.1956 733.674 49.5984 826.409Z" fill="#B6BEED"/>
<mask id="mask6" mask-type="alpha" maskUnits="userSpaceOnUse" x="49" y="180" width="361" height="687">
<path d="M49.5984 826.409C51.0012 919.145 203.069 826.529 199.942 790.679C196.816 754.828 201.035 597.35 222.737 526.348C244.44 455.345 323.568 296.126 409.336 247.849L409.224 247.541C404.694 234.991 401.981 227.477 384.191 212.228C361.771 193.012 218.714 141.768 141.848 231.445C64.982 321.122 48.1956 733.674 49.5984 826.409Z" fill="#B6BEED"/>
</mask>
<g mask="url(#mask6)">
<path d="M114.367 276.764C99.5848 300.948 184.821 327.133 258.428 314.744C350.438 299.257 414.582 257.668 393.104 216.685M80.7865 347.539C80.7865 375.325 228.184 387.569 318.553 367.892C408.923 348.214 421.797 343.895 431.514 331.141M75.3202 446.836C55.6563 495.257 250.923 493.443 265.293 446.836M53.4539 545.043C33.7901 593.464 216.236 576.784 230.606 530.177M44.7802 666.447C25.1163 714.868 205.084 664.74 219.454 618.133M37.3504 746.97C17.6865 795.391 205.084 732.875 219.454 686.268M182.816 185.384C168.24 193.583 143.462 216.54 160.953 242.776C182.816 275.572 290.313 265.551 318.553 242.776C346.794 220.002 344.061 179.007 324.019 166.254C307.986 156.05 223.203 174.756 182.816 185.384Z" stroke="#9BA5DC" stroke-width="4"/>
<path d="M31.1992 827.352C41.3537 835.352 47.1493 835.385 74.0248 832.421C129.657 826.284 195.788 770.024 218.606 745.476" stroke="white" stroke-width="4"/>
<path d="M282.932 193.381C264.128 168.602 205.434 181.138 205.433 213.895C205.433 246.651 301.736 218.159 282.932 193.381Z" stroke="white" stroke-width="4"/>
</g>
<path d="M218.64 205.379C222.793 180.643 210.351 146.277 201.646 130.506L271.891 137.806C274.555 157.678 272.716 168.403 274.991 189.875C277.265 211.347 214.488 230.115 218.64 205.379Z" fill="#FFBFBE"/>
<path d="M281.782 101.636C273.079 81.2074 273.058 74.896 258.812 65.3677C244.566 55.8395 220.712 58.7163 203.903 70.881C187.093 83.0457 165.794 110.898 203.167 151.889C240.54 192.88 273.28 186.483 289.773 166.955C306.266 147.427 292.662 127.173 281.782 101.636Z" fill="#FFD1D1"/>
<ellipse rx="15.8348" ry="9.09506" transform="matrix(0.827312 -0.561742 -0.561742 -0.827312 229.559 132.463)" fill="white"/>
<ellipse rx="15.8348" ry="9.09506" transform="matrix(0.827312 -0.561742 -0.561742 -0.827312 269.992 104.503)" fill="white"/>
<path d="M249.778 117.375C249.778 117.375 262.385 130.625 262.074 132.355C261.763 134.084 255.45 135.142 255.45 135.142" stroke="#23282E" stroke-width="2" stroke-linecap="round" stroke-linejoin="round"/>
<path d="M268.242 140.226C283.363 155.326 259.86 163.981 258.203 146.78" stroke="#23282E" stroke-width="2" stroke-linecap="round" stroke-linejoin="round"/>
<path d="M249.496 83.1522C249.496 83.1522 303.868 122.927 309.335 73.1634C314.801 23.4001 257.112 27.2064 257.112 27.2064C240.795 6.73552 179.236 -2.6326 158 53.3233C126.382 71.7939 124.73 105.574 148.734 126.663C172.738 147.751 199.522 138.442 196.664 122.806C211.831 125.021 193.044 96.7483 193.044 96.7483C201.151 100.31 237.74 105.559 249.496 83.1522Z" fill="#FF997D"/>
<path d="M226.534 97.0387C226.472 99.5295 209.449 113.441 208.349 111.698C207.248 109.955 213.989 101.485 218.798 98.285C222.536 95.797 226.595 94.5479 226.534 97.0387Z" fill="#FF997D"/>
<path d="M126.49 97.9957C115.536 98.1246 93.7003 95.1331 93.984 82.1363C94.2677 69.1394 115.773 87.2939 126.49 97.9957Z" fill="#FF997D"/>
</svg>
