<svg width="586" height="1787" viewBox="0 0 586 1787" fill="none" xmlns="http://www.w3.org/2000/svg">
<path d="M365.225 1603.2C403.465 1611.26 416.767 1612.68 436.35 1623.2C443.865 1627.24 447.622 1629.26 451.991 1633.14C475.522 1653.96 473.856 1689.84 472.566 1703.25C449.983 1703.41 424.32 1702.1 396.36 1698.03C380.226 1695.68 365.195 1692.71 351.354 1689.38C352.628 1681.02 349.319 1674.89 346.277 1674.45C343.376 1674.04 338.946 1678.55 337.318 1685.8C328.679 1685.4 317.729 1684.03 305.557 1680.24C298.193 1677.96 291.813 1675.23 286.425 1672.55C286.614 1649.63 303.219 1593.92 307.054 1590.41C310.889 1586.9 332.29 1596.28 365.225 1603.2Z" fill="#BFC7F3"/>
<mask id="mask0" mask-type="alpha" maskUnits="userSpaceOnUse" x="286" y="1589" width="188" height="115">
<path d="M357.414 1598.27C395.654 1606.33 416.769 1612.68 436.352 1623.21C443.867 1627.24 447.624 1629.26 451.993 1633.14C475.523 1653.96 473.858 1689.84 472.567 1703.25C449.985 1703.41 424.321 1702.1 396.362 1698.03C380.228 1695.68 365.196 1692.71 351.355 1689.38C352.63 1681.02 349.32 1674.89 346.279 1674.45C343.378 1674.04 338.947 1678.55 337.319 1685.8C328.681 1685.4 317.73 1684.03 305.559 1680.24C298.195 1677.96 291.814 1675.23 286.427 1672.55C286.616 1649.63 303.221 1593.92 307.056 1590.41C310.891 1586.9 324.48 1591.35 357.414 1598.27Z" fill="#BFC7F3"/>
</mask>
<g mask="url(#mask0)">
<path d="M486.246 1681.44C403.603 1683.23 360.003 1670.52 282.279 1647.65L272.356 1697.68L475.052 1737.88L486.246 1681.44Z" fill="#23282E"/>
</g>
<path d="M333.298 1621.92C361.817 1620.72 413.987 1616.4 394.523 1608.7C370.193 1599.06 397.511 1635.53 412.218 1625.32C426.924 1615.12 407.808 1608.07 405.896 1617.51C403.983 1626.94 421.416 1642.89 430.733 1629C440.049 1615.1 422.626 1610.33 422.985 1623.96C423.228 1633.18 434.143 1639.12 441.584 1639.22M441.584 1639.22C445.136 1639.27 447.896 1637.99 448.327 1635.11C449.658 1626.19 440.652 1623.83 439.8 1628.13C439.118 1631.56 440.705 1636.95 441.584 1639.22Z" stroke="#9BA5DC" stroke-width="4" stroke-linecap="round"/>
<path d="M309.751 1597.36L305.39 1535.17L362.642 1521.14L356.144 1604.23C354.444 1610.48 310.342 1604.38 309.751 1597.36Z" fill="#FFD1D1"/>
<path d="M298.973 813.285C298.814 820.456 296.202 827.168 296.202 834.326C296.202 837.328 298.509 839.081 299.897 841.614C307.377 855.254 313.051 871.038 316.012 886.262C316.689 889.747 317.516 895.705 316.012 899.144C314.765 901.993 310.639 901.042 308.108 901.042C299.862 901.042 292.477 904.804 284.706 906.996C281.874 907.794 278.707 910.28 275.879 910.28" stroke="black" stroke-linecap="round" stroke-linejoin="round"/>
<path d="M332.231 816.056C332.554 830.626 332.353 846.377 344.24 856.497C353.49 864.372 365.998 867.133 375.135 875.639C386.063 885.814 395.046 900.116 401.513 913.052" stroke="black" stroke-linecap="round" stroke-linejoin="round"/>
<path d="M352.562 725.783C342.715 725.783 334.951 724.037 328.933 715.596C324.127 708.854 320.764 700.39 317.601 692.811C312.094 679.619 307.97 665.814 306.268 651.58C304.492 636.727 305.954 621.21 311.332 607.275C311.863 605.898 316.348 593.847 318.505 596.003C322.919 600.418 325.745 605.177 331.224 608.722C348.142 619.669 367.139 627.591 382.31 641.122C386.998 645.303 391.694 649.506 394.064 655.468C396.646 661.965 398.648 668.831 399.459 675.782C400.386 683.73 399.347 689.888 394.215 696.247C390.693 700.611 386.583 704.74 382.641 708.724C380.864 710.521 379.06 712.716 376.734 713.848C375.939 714.235 368.782 717.079 371.279 718.188C372.666 718.804 373.077 720.293 373.509 721.624C375.351 727.292 377.888 732.709 379.627 738.412C380.108 739.986 380.429 741.627 381.285 743.053C381.325 743.119 382.164 744.168 381.556 744.168C380.456 744.168 378.751 742.305 378.181 741.516C375.772 738.181 375.755 733.655 373.178 730.244C371.214 727.646 369.153 725.931 366.698 723.885C364.24 721.837 357.241 727.002 355.275 723.071" stroke="black" stroke-linecap="round" stroke-linejoin="round"/>
<path d="M368.296 707.881C362.125 701.973 354.196 697.951 346.746 693.866C344.156 692.446 340.563 691.497 339 688.893" stroke="black" stroke-linecap="round" stroke-linejoin="round"/>
<path d="M350.935 687.266C347.546 681.594 343.511 676.599 339.753 671.171C336.463 666.418 333.341 661.534 329.235 657.428" stroke="black" stroke-linecap="round" stroke-linejoin="round"/>
<path d="M334.656 646.577C334.656 639.525 334.656 632.472 334.656 625.419" stroke="black" stroke-linecap="round" stroke-linejoin="round"/>
<mask id="mask1" mask-type="alpha" maskUnits="userSpaceOnUse" x="305" y="1521" width="58" height="86">
<path d="M309.751 1597.36L305.39 1535.17L362.642 1521.14L356.144 1604.23C354.444 1610.48 310.342 1604.37 309.751 1597.36Z" fill="#FFD1D1"/>
</mask>
<g mask="url(#mask1)">
<path d="M376.843 1556.19L387.418 1559.59L376.393 1537.56L287.6 1531.53L274.677 1548.91L285.923 1543.77L286.217 1555.94L299.839 1548.31L302.104 1558L313.301 1550.82L317.873 1555.18L333.593 1550.33L333.847 1560.89L344.658 1554.53L348.052 1560.54L356.545 1554.25L365.503 1560.12L376.843 1556.19Z" fill="#FFBFBE" stroke="#FFBFBE" stroke-width="7" stroke-linecap="round" stroke-linejoin="round"/>
</g>
<path d="M348.762 662.852C348.762 655.257 348.762 647.662 348.762 640.067" stroke="black" stroke-linecap="round" stroke-linejoin="round"/>
<path d="M359.074 683.468C360.828 679.406 363.952 676.581 366.428 672.979C367.424 671.531 368.241 669.418 369.382 668.277" stroke="black" stroke-linecap="round" stroke-linejoin="round"/>
<path d="M376.843 1537.83L387.418 1541.23L376.393 1519.19L287.6 1513.16L274.677 1530.55L285.923 1525.41L286.217 1537.58L299.839 1529.94L302.104 1539.63L313.301 1532.46L317.873 1536.82L333.593 1531.97L333.847 1542.52L344.658 1536.17L348.052 1542.18L356.545 1535.88L365.503 1541.76L376.843 1537.83Z" fill="white" stroke="white" stroke-width="7" stroke-linecap="round" stroke-linejoin="round"/>
<path d="M140.877 870.607C176.903 852.079 252.688 803.374 275.97 784.504C336.798 786.837 440.853 801.423 451.305 815.765C464.37 833.693 468.493 960.31 468.493 996.166C468.493 1032.02 455.047 1261.74 451.305 1351.36C447.563 1440.99 413.589 1501.8 405.745 1516.37C397.902 1530.93 325.069 1519.73 290.234 1516.37C255.398 1513 255.756 1477.15 249.996 1441.29C244.236 1405.44 285.852 1279.65 299.298 1202.34C312.744 1125.02 313.128 998.07 312.235 982.889C311.521 970.744 274.285 995.093 255.756 1008.79C255.756 1011.19 259.799 1016 275.97 1016C296.183 1016 273.396 1117.64 255.756 1162.67C238.116 1207.7 164.033 1261.74 89.4088 1261.74C14.7844 1261.74 0.633063 1072.61 0.633057 1016C0.633051 959.384 95.8435 893.766 140.877 870.607Z" fill="#FFC0AE"/>
<path d="M368.182 816.562L410.678 904.93M347.37 812.516L307.471 881.995" stroke="white" stroke-width="6" stroke-linecap="round" stroke-linejoin="round"/>
<path d="M352.48 1108.56C351.484 1147.63 349.792 1160.9 355.51 1182.38C357.699 1190.63 358.794 1194.75 361.559 1199.89C376.387 1227.6 411.675 1234.27 425.028 1236.11C430.396 1214.17 435.048 1188.9 437.545 1160.76C438.987 1144.52 439.57 1129.21 439.528 1114.97C431.101 1114.28 425.899 1109.64 426.179 1106.58C426.444 1103.67 431.858 1100.4 439.292 1100.49C440.898 1091.99 442.09 1081.02 441.218 1068.3C440.699 1060.61 439.519 1053.77 438.15 1047.91C415.813 1042.8 357.776 1046.09 353.471 1049.01C349.167 1051.93 353.355 1074.92 352.48 1108.56Z" fill="#BFC7F3"/>
<mask id="mask2" mask-type="alpha" maskUnits="userSpaceOnUse" x="351" y="1045" width="91" height="192">
<path d="M352.48 1108.56C351.484 1147.63 349.792 1160.9 355.51 1182.38C357.699 1190.63 358.793 1194.75 361.559 1199.9C376.387 1227.6 411.675 1234.27 425.028 1236.11C430.396 1214.18 435.048 1188.9 437.545 1160.76C438.987 1144.52 439.57 1129.21 439.528 1114.97C431.101 1114.28 425.899 1109.65 426.179 1106.59C426.444 1103.67 431.858 1100.4 439.292 1100.49C440.897 1091.99 442.09 1081.02 441.218 1068.31C440.699 1060.61 439.519 1053.77 438.149 1047.91C415.813 1042.8 357.776 1046.09 353.471 1049.01C349.167 1051.93 353.355 1074.92 352.48 1108.56Z" fill="#BFC7F3"/>
</mask>
<g mask="url(#mask2)">
<path d="M400.644 1244.38C421.472 1164.39 419.182 1119.03 414.883 1038.12L465.857 1040.03L458.145 1246.53L400.644 1244.38Z" fill="#23282E"/>
</g>
<path d="M378.063 1081.82C370.313 1109.29 354.06 1159.05 351.055 1138.34C347.299 1112.44 376.47 1147.44 363.146 1159.39C349.822 1171.34 347.381 1151.12 357.003 1151.44C366.625 1151.76 378.116 1172.4 362.442 1178.26C346.768 1184.11 346.154 1166.06 359.331 1169.55C368.251 1171.92 371.501 1183.91 369.882 1191.17M369.882 1191.17C369.11 1194.64 367.228 1197.03 364.324 1196.79C355.338 1196.02 355.122 1186.71 359.501 1186.88C363.004 1187.01 367.882 1189.8 369.882 1191.17Z" stroke="#9BA5DC" stroke-width="4" stroke-linecap="round"/>
<path d="M357.604 1053.38L292.716 1043.2L274.266 1099.19H357.604C363.971 1097.98 364.55 1054.52 357.604 1053.38Z" fill="#FFD1D1"/>
<mask id="mask3" mask-type="alpha" maskUnits="userSpaceOnUse" x="274" y="1043" width="89" height="57">
<path d="M357.604 1053.38L292.716 1043.21L274.266 1099.19H357.604C363.971 1097.98 364.55 1054.52 357.604 1053.38Z" fill="#FFD1D1"/>
</mask>
<g mask="url(#mask3)">
<path d="M310.825 1022.48L313.844 1015.31L291.194 1027.4L279.29 1121.35L301.9 1138.08L296.815 1125.24L309.244 1125.14L301.649 1109.56L311.571 1107.18L304.415 1094.36L308.928 1089.26L304.212 1071.36L314.984 1071.27L308.66 1058.91L314.842 1055.17L308.541 1045.44L314.667 1035.4L310.825 1022.48Z" fill="#FFBFBE" stroke="#FFBFBE" stroke-width="8" stroke-linecap="round" stroke-linejoin="round"/>
</g>
<path d="M298.487 1022.48L301.506 1015.31L278.856 1027.4L266.952 1121.35L289.563 1138.08L284.478 1125.24L296.906 1125.14L289.311 1109.56L299.234 1107.18L292.077 1094.36L296.59 1089.26L291.875 1071.36L302.646 1071.27L296.322 1058.91L302.504 1055.17L296.204 1045.44L302.33 1035.4L298.487 1022.48Z" fill="white" stroke="white" stroke-width="8" stroke-linecap="round" stroke-linejoin="round"/>
<path d="M89.4075 1261.73C15.8969 1261.73 157.159 920.885 305.487 979.927C293.757 982.455 269.562 998.575 255.755 1008.78C255.755 1011.18 259.798 1015.99 275.968 1015.99C296.182 1015.99 273.395 1117.63 255.755 1162.66C238.115 1207.7 164.032 1261.73 89.4075 1261.73Z" fill="#FFC0AE"/>
<path d="M338.169 473.928C326.111 445.638 340.151 411.958 365.373 398.589C380.184 364.076 451.124 367.352 464.592 421.001C478.06 474.651 547.527 497.033 557.744 499.513C570.515 502.612 552.69 511.328 547.918 510.688C543.145 510.048 576.074 549.163 558.98 552.424C546.815 554.745 543.152 552.639 542.663 550.866C544.348 574.735 544.839 620.525 533.58 617.66C522.22 614.769 515.368 612.083 513.361 611.102C512.875 616.737 509.094 627.632 497.856 626.125C486.619 624.619 476.293 614.399 472.535 609.478L327.228 583.519C327.228 583.519 350.227 502.219 338.169 473.928Z" fill="#FF7C8E"/>
<path d="M392.642 374.673C388.651 370.823 382.106 362.672 387.853 360.869C393.6 359.066 393.441 369.32 392.642 374.673Z" fill="#FF7C8E"/>
<path d="M433.646 97.6116C426.611 97.0091 408.25 104.776 399.917 110.557V81.5278C410.123 82.6588 432.365 85.1469 439.686 86.0517C448.837 87.1827 442.44 98.3647 433.646 97.6116Z" fill="#FFBFBE"/>
<path d="M305.544 97.6116C312.579 97.0091 330.94 104.776 339.273 110.557V81.5278C329.067 82.6588 306.825 85.1469 299.504 86.0517C290.353 87.1827 296.75 98.3647 305.544 97.6116Z" fill="#FFBFBE"/>
<path d="M501.945 303.886C515.918 332.026 455.662 490.547 455.662 490.547L509.173 551.251C509.173 551.251 597.47 335.343 575.79 284.479C554.109 233.615 417.887 139.103 412.347 128.988C406.807 118.874 409.865 98.3055 412.347 90.6856C414.829 83.0658 453.905 49.7417 455.662 45.3698C457.419 40.9979 456.669 38.542 452.136 39.4356C447.603 40.3292 417.887 61.0162 417.887 61.0162C417.887 61.0162 452.136 24.8831 455.662 18.9356C459.187 12.9882 452.342 8.61116 447.603 13.7734C442.864 18.9356 405.8 52.9225 405.8 52.9225C405.8 52.9225 420.332 15.4706 423.428 8.14614C426.524 0.821699 421.527 -2.64005 417.887 2.75305C414.248 8.14614 383.639 61.0162 383.639 61.0162C383.639 61.0162 381.351 24.8754 381.121 13.7734C380.89 2.67133 371.933 3.15402 371.933 13.7734C371.933 24.3928 362.745 125.697 371.933 139.103C381.121 152.508 487.972 275.746 501.945 303.886Z" fill="#FFD1D1"/>
<mask id="mask4" mask-type="alpha" maskUnits="userSpaceOnUse" x="367" y="0" width="213" height="552">
<path d="M501.945 303.886C515.917 332.026 455.661 490.547 455.661 490.547L509.173 551.251C509.173 551.251 597.47 335.343 575.79 284.479C554.109 233.615 417.887 139.103 412.347 128.988C406.807 118.874 409.865 98.3055 412.347 90.6856C414.829 83.0658 453.905 49.7417 455.661 45.3698C457.418 40.9979 456.669 38.542 452.136 39.4356C447.603 40.3292 417.887 61.0162 417.887 61.0162C417.887 61.0162 452.136 24.8831 455.661 18.9356C459.187 12.9882 452.342 8.61116 447.603 13.7734C442.864 18.9356 405.8 52.9225 405.8 52.9225C405.8 52.9225 420.332 15.4706 423.427 8.14614C426.523 0.821699 421.527 -2.64005 417.887 2.75305C414.248 8.14614 383.639 61.0162 383.639 61.0162C383.639 61.0162 381.351 24.8754 381.12 13.7734C380.89 2.67133 371.932 3.15402 371.932 13.7734C371.932 24.3928 362.744 125.697 371.932 139.103C381.12 152.508 487.972 275.746 501.945 303.886Z" fill="#FFD1D1"/>
</mask>
<g mask="url(#mask4)">
<path d="M560.398 533.672C546.931 507.354 488.901 474.383 461.569 461.186L411.285 494.27L491.631 585.457C520.165 579.161 573.866 559.989 560.398 533.672Z" fill="#FFBFBE"/>
</g>
<path d="M237.245 303.886C223.272 332.026 283.528 490.547 283.528 490.547L230.017 551.251C230.017 551.251 141.72 335.343 163.4 284.479C185.081 233.615 321.302 139.103 326.843 128.988C332.383 118.874 329.324 98.3055 326.843 90.6856C324.361 83.0658 285.285 49.7417 283.528 45.3698C281.771 40.9979 282.521 38.542 287.054 39.4356C291.587 40.3292 321.302 61.0162 321.302 61.0162C321.302 61.0162 287.054 24.8831 283.528 18.9356C280.003 12.9882 286.848 8.61116 291.587 13.7734C296.326 18.9356 333.39 52.9225 333.39 52.9225C333.39 52.9225 318.858 15.4706 315.762 8.14614C312.666 0.821699 317.663 -2.64005 321.302 2.75305C324.942 8.14614 355.551 61.0162 355.551 61.0162C355.551 61.0162 357.839 24.8754 358.069 13.7734C358.3 2.67133 367.257 3.15402 367.257 13.7734C367.257 24.3928 376.445 125.697 367.257 139.103C358.069 152.508 251.217 275.746 237.245 303.886Z" fill="#FFD1D1"/>
<mask id="mask5" mask-type="alpha" maskUnits="userSpaceOnUse" x="159" y="0" width="213" height="552">
<path d="M237.245 303.886C223.272 332.026 283.528 490.547 283.528 490.547L230.017 551.251C230.017 551.251 141.72 335.343 163.4 284.479C185.081 233.615 321.302 139.103 326.843 128.988C332.383 118.874 329.324 98.3055 326.843 90.6856C324.361 83.0658 285.285 49.7417 283.528 45.3698C281.771 40.9979 282.521 38.542 287.054 39.4356C291.587 40.3292 321.302 61.0162 321.302 61.0162C321.302 61.0162 287.054 24.8831 283.528 18.9356C280.003 12.9882 286.848 8.61116 291.587 13.7734C296.326 18.9356 333.39 52.9225 333.39 52.9225C333.39 52.9225 318.858 15.4706 315.762 8.14614C312.666 0.821699 317.663 -2.64005 321.302 2.75305C324.942 8.14614 355.551 61.0162 355.551 61.0162C355.551 61.0162 357.839 24.8754 358.069 13.7734C358.3 2.67133 367.257 3.15402 367.257 13.7734C367.257 24.3928 376.445 125.697 367.257 139.103C358.069 152.508 251.217 275.746 237.245 303.886Z" fill="#FFD1D1"/>
</mask>
<g mask="url(#mask5)">
<path d="M282.678 456.363C255.175 462.091 208.187 511.261 188.131 535.129L202.245 596.505L307.796 542.29C310.883 511.26 310.182 450.634 282.678 456.363Z" fill="#FFBFBE"/>
</g>
<path d="M284.643 474.79C260.306 489.396 244.571 502.29 211.227 537.718C249.144 577.323 240.863 789.451 272.334 789.451L447.752 816.03C478.894 816.03 489.426 592.84 530.931 526.87C508.945 504.367 494.535 492.494 458.743 474.79C447.905 497.863 422.89 542.484 369.592 542.484C316.294 542.484 287.424 497.863 284.643 474.79Z" fill="#FFE2AB"/>
<mask id="mask6" mask-type="alpha" maskUnits="userSpaceOnUse" x="211" y="474" width="320" height="343">
<path d="M284.643 474.79C260.306 489.396 244.571 502.29 211.227 537.718C249.144 577.323 240.863 789.451 272.334 789.451L447.752 816.03C478.894 816.03 489.426 592.84 530.931 526.87C508.945 504.367 494.535 492.494 458.743 474.79C447.905 497.863 422.89 542.484 369.592 542.484C316.294 542.484 287.424 497.863 284.643 474.79Z" fill="#FFE2AB"/>
</mask>
<g mask="url(#mask6)">
<path d="M293.025 492.19C281.818 493.014 240.053 530.985 218.892 555.6L198.379 540.214L283.236 469.345L293.025 492.19Z" fill="white"/>
<path d="M442.036 496.745C458.215 490.168 504.272 523.572 523.225 551.781L545.466 530.186L454.528 467.309L442.036 496.745Z" fill="white"/>
<path d="M381.438 647.602C381.438 638.623 378.631 598.031 377.227 578.857C407.968 587.656 425.143 583.782 455.809 580.715C455.552 587.057 454.832 600.873 454.009 605.398C452.981 611.055 452.987 647.602 451.117 652.512C449.248 657.422 381.437 658.825 381.438 647.602Z" fill="white"/>
<path d="M334.325 547.487C331.794 541.196 341.793 540.814 347.406 539.765H381.566C390.169 541.767 404.137 547.373 391.189 553.779C375.005 561.787 336.856 553.779 334.325 547.487Z" fill="white"/>
<path d="M430.58 611.082C427.276 607.093 443.538 597.963 446.745 601.911C449.323 605.088 433.884 615.071 430.58 611.082Z" fill="#AAE8DF"/>
<path d="M423.575 614.227C418.162 612.657 427.214 594.493 432.515 596.086C436.778 597.368 428.989 615.796 423.575 614.227Z" fill="#E3FFFB"/>
<path d="M415.152 621.997C412.84 617.244 431.169 612.122 433.393 616.812C435.182 620.584 417.463 626.75 415.152 621.997Z" fill="#AAE8DF"/>
<path d="M405.39 628.176C400.085 626.638 408.956 608.836 414.151 610.397C418.33 611.653 410.696 629.714 405.39 628.176Z" fill="#AAE8DF"/>
<path d="M396.588 635.94C394.118 630.862 413.701 625.39 416.078 630.4C417.989 634.43 399.058 641.018 396.588 635.94Z" fill="#E3FFFB"/>
<path d="M430.959 609.539L392.595 637.462" stroke="#AAE8DF" stroke-width="2.1563" stroke-linecap="round" stroke-linejoin="round"/>
</g>
<path d="M345.159 542.287L349.239 508.987L405.058 484.838L390.012 542.287C392.349 552.846 343.004 554.232 345.159 542.287Z" fill="#FFBFBE"/>
<path d="M440.329 491.3C445.64 479.913 431.787 475.17 424.197 474.222L407.501 496.238C416.23 499.337 435.017 502.687 440.329 491.3Z" fill="#FFBFBE"/>
<path d="M345.851 439.773C349.096 422.956 369.951 399.729 395.141 401.711C420.331 403.694 432.688 422.657 436.768 446.704C441.867 476.762 414.578 509.741 386.788 524.084C358.999 538.428 313.904 509.178 326.214 480.065C338.524 450.952 341.793 460.795 345.851 439.773Z" fill="#FFD1D1"/>
<ellipse rx="14.4616" ry="6.29606" transform="matrix(0.898676 0.438614 0.438614 -0.898676 349.453 452.604)" fill="#FFBFBE"/>
<path d="M336.719 448.245C336.719 453.745 352.315 463.096 361.043 460.335" stroke="#23282E" stroke-width="2" stroke-linecap="round"/>
<path d="M337.817 451.607L334.746 452.988" stroke="#23282E" stroke-width="2" stroke-linecap="round"/>
<path d="M342.032 455.178L339.844 458.088" stroke="#23282E" stroke-width="2" stroke-linecap="round"/>
<path d="M347.94 459.379L347.047 462.338" stroke="#23282E" stroke-width="2" stroke-linecap="round"/>
<path d="M355.885 461.289L356.531 464.605" stroke="#23282E" stroke-width="2" stroke-linecap="round"/>
<path d="M378.426 471.835L375.356 473.216" stroke="#23282E" stroke-width="2" stroke-linecap="round"/>
<path d="M382.641 475.407L380.453 478.317" stroke="#23282E" stroke-width="2" stroke-linecap="round"/>
<path d="M388.55 479.608L387.656 482.566" stroke="#23282E" stroke-width="2" stroke-linecap="round"/>
<path d="M396.494 481.517L397.141 484.834" stroke="#23282E" stroke-width="2" stroke-linecap="round"/>
<ellipse rx="14.4616" ry="6.29606" transform="matrix(0.898676 0.438614 0.438614 -0.898676 390.832 472.836)" fill="#FFBFBE"/>
<path d="M377.858 468.495C377.858 473.995 393.453 483.346 402.182 480.585" stroke="#23282E" stroke-width="2" stroke-linecap="round"/>
<path d="M421.31 461.701C421.474 475.216 433.879 477.54 440.225 477.094C452.703 457.29 448.71 448.766 439.158 433.665C433.14 437.379 421.145 448.186 421.31 461.701Z" fill="#FF7C8E"/>
<path d="M394.469 453.98C396.921 451.832 417.386 455.506 415.706 464.631C415.348 466.576 416.236 468.042 413.79 469.317C410.733 470.91 391.404 456.664 394.469 453.98Z" fill="#FF697D"/>
<path d="M372.536 458.163C369.264 464.224 360.828 476.368 353.264 476.455C345.7 476.543 351.542 483.039 355.409 486.276" stroke="#23282E" stroke-width="2" stroke-linecap="round" stroke-linejoin="round"/>
<path d="M345.72 411.28C346.521 394.748 351.344 361.459 384.986 374.076C418.627 386.693 460.486 418.952 452.837 435.847C445.188 452.741 438.476 438.122 438.476 438.122C438.476 438.122 432.516 449.022 423.16 445.933C413.804 442.843 410.724 438.218 409.626 425.936C409.626 425.936 406.196 434.837 393.842 436.562C381.488 438.288 376.078 424.891 374.917 417.976C374.917 417.976 344.92 427.812 345.72 411.28Z" fill="#FF697D"/>
<path d="M344.696 491.141C347.462 496.228 350.193 497.745 356.236 498.922" stroke="#23282E" stroke-width="2" stroke-linecap="round" stroke-linejoin="round"/>
<path d="M366.101 440.771C365.856 437.521 348.678 425.804 343.484 433.493C342.378 435.131 340.717 435.555 341.569 438.178C342.634 441.457 366.407 444.833 366.101 440.771Z" fill="#FF697D"/>
</svg>
