<svg width="1494" height="697" viewBox="0 0 1494 697" fill="none" xmlns="http://www.w3.org/2000/svg">
<path d="M971.753 243.937C943.97 248.709 952.063 281.813 959.581 297.769C941.405 301.132 897.755 310.875 868.565 322.943C832.079 338.029 894.806 390.133 894.498 401.283C894.19 412.432 879.406 419.394 851.097 410.371C822.788 401.348 806.317 368.436 773.709 342.458C741.101 316.48 642.699 335.947 607.608 303.52C572.517 271.093 569.036 228.856 613.09 138.176C657.144 47.496 720.303 30.7829 765.689 43.6512C811.074 56.5195 856.308 132.485 880.529 156.253C904.751 180.021 989.346 181.202 1016.66 196.311C1043.97 211.419 1047.9 231.857 1037 252.566C1026.1 273.276 1006.48 237.972 971.753 243.937Z" fill="#569AD4"/>
<path d="M721.983 146.756L753.651 170.737C755.382 172.048 755.91 174.419 754.899 176.341L726.392 230.503C725.394 232.398 723.186 233.31 721.143 232.671L683.107 220.787C680.462 219.961 679.214 216.938 680.504 214.486L715.378 148.227C716.654 145.803 719.799 145.103 721.983 146.756Z" fill="#CCC5C1"/>
<path d="M1322.33 460.967L1332.69 470.96L1327.51 476.34L1324.16 473.112L1321.5 475.868L1317.72 472.218L1320.37 469.462L1317.14 466.348L1322.33 460.967Z" fill="#FEFEFE"/>
<path d="M780.409 189.857C792.974 150.179 959.895 243.65 914.068 292.761C898.34 310.073 866.871 347.979 866.824 361.105C866.765 377.512 894.552 392.759 882.579 396.474C870.606 400.19 807.395 345.549 786.494 325.784C765.594 306.018 646.59 308.494 620.684 291.103C594.778 273.711 724.361 263.03 739.124 268.296C750.934 272.509 771.568 217.759 780.409 189.857Z" fill="#FEFEFE"/>
<path d="M1337.68 476.257L1348.04 486.25L1342.86 491.63L1339.51 488.402L1336.85 491.158L1333.06 487.508L1335.72 484.752L1332.49 481.638L1337.68 476.257Z" fill="#FEFEFE"/>
<path d="M1353.03 491.547L1363.39 501.54L1358.21 506.92L1354.86 503.692L1352.2 506.448L1348.42 502.798L1351.07 500.042L1347.84 496.928L1353.03 491.547Z" fill="#FEFEFE"/>
<path d="M1368.38 506.837L1378.74 516.83L1373.56 522.21L1370.21 518.982L1367.55 521.738L1363.77 518.088L1366.42 515.332L1363.19 512.218L1368.38 506.837Z" fill="#FEFEFE"/>
<path d="M1383.73 522.128L1394.09 532.121L1388.91 537.501L1385.56 534.273L1382.9 537.028L1379.11 533.378L1381.77 530.623L1378.54 527.508L1383.73 522.128Z" fill="#FEFEFE"/>
<path d="M1399.08 537.418L1409.44 547.411L1404.26 552.791L1400.91 549.563L1398.25 552.318L1394.47 548.668L1397.12 545.913L1393.89 542.798L1399.08 537.418Z" fill="#FEFEFE"/>
<path d="M1280 466.534L897.55 256.46C894.071 254.548 889.7 255.862 887.851 259.375L870.546 292.253C868.702 295.757 870.081 300.091 873.609 301.886L1264.41 500.724C1265.08 501.062 1265.69 501.513 1266.22 502.042C1282.97 518.914 1287.14 527.293 1288.29 537.392C1288.67 540.658 1290.95 543.45 1294.18 544.066C1318.44 548.694 1334.74 550.325 1356 561.804C1358.69 563.262 1359.96 566.408 1360.42 569.441C1362.5 583.061 1380.34 602.766 1398.73 594.529C1417.08 586.306 1409.56 566.313 1407.47 561.606C1407.17 560.929 1406.74 560.335 1406.21 559.812L1309.1 462.744C1307.13 460.78 1304.2 460.143 1301.6 461.113L1285.9 466.964C1283.97 467.685 1281.81 467.528 1280 466.534Z" fill="#FFF5DD"/>
<mask id="mask0" mask-type="alpha" maskUnits="userSpaceOnUse" x="867" y="253" width="420" height="254">
<path d="M1276.74 464.742L897.551 256.459C894.071 254.548 889.701 255.862 887.852 259.375L870.547 292.253C868.703 295.756 870.081 300.091 873.61 301.886L1259.18 498.059C1262.64 499.819 1266.87 498.474 1268.68 495.038L1279.61 474.27C1281.41 470.844 1280.14 466.606 1276.74 464.742Z" fill="#D4BBA3"/>
</mask>
<g mask="url(#mask0)">
<path d="M1281.39 449.984L1243.3 522.347M1256.64 436.958L1218.56 509.321M1227.21 421.468L1189.13 493.831M1200.05 407.17L1161.96 479.533M1175.14 394.063L1137.06 466.426M1149.79 380.718L1111.7 453.081M1126.47 368.446L1088.38 440.808M1105.64 357.484L1067.56 429.846M1084.36 346.283L1046.28 418.646M1066.48 336.87L1028.39 409.233M1047.24 326.742L1009.15 399.105M1029.35 317.329L991.266 389.692M1012.6 308.512L974.513 380.875M996.527 300.052L958.44 372.415M982.944 292.903L944.857 365.266M969.587 285.873L931.5 358.236M956.23 278.843L918.144 351.206M944.232 272.528L906.145 344.891M932.913 266.57L894.826 338.933M921.141 260.374L883.054 332.737M911.633 255.37L873.546 327.733M902.577 250.604L864.491 322.967" stroke="#FEFEFE" stroke-width="2.66198"/>
</g>
<rect x="813.337" y="200.285" width="71.0683" height="12.4188" rx="4.43663" transform="rotate(117.759 813.337 200.285)" fill="#CCC5C1"/>
<rect x="862.006" y="215.951" width="13.9292" height="2.43406" rx="1.21703" transform="rotate(-152.085 862.006 215.951)" fill="#CCC5C1"/>
<rect x="862.006" y="215.951" width="4.23975" height="2.43406" rx="1.21703" transform="rotate(-152.085 862.006 215.951)" fill="#483E39"/>
<rect x="840.354" y="204.211" width="13.9292" height="2.43406" rx="1.21703" transform="rotate(-152.085 840.354 204.211)" fill="#CCC5C1"/>
<rect x="840.354" y="204.211" width="4.23975" height="2.43406" rx="1.21703" transform="rotate(-152.085 840.354 204.211)" fill="#483E39"/>
<rect x="883.319" y="237.116" width="71.0683" height="12.4188" rx="4.43663" transform="rotate(117.759 883.319 237.116)" fill="#CCC5C1"/>
<path d="M691.918 221.714L726.493 156.022C728.776 151.685 727.111 146.32 722.774 144.037L722.585 143.938C718.248 141.655 712.882 143.32 710.6 147.657L676.024 213.349C673.742 217.685 675.407 223.051 679.744 225.334L679.933 225.433C684.27 227.716 689.635 226.051 691.918 221.714Z" fill="#23282E"/>
<path d="M716.407 241.623L756.769 164.937C757.453 163.637 756.954 162.027 755.653 161.342C754.352 160.658 752.743 161.157 752.058 162.458L711.696 239.144C711.012 240.444 711.511 242.054 712.812 242.739C714.113 243.423 715.722 242.924 716.407 241.623Z" fill="#23282E"/>
<path d="M716.88 254.846C684.911 237.465 683.572 223.432 684.604 220.112C685.193 218.219 681.013 216.309 679.888 222.332C678.013 227.611 682.254 242.514 714.223 259.895C746.191 277.277 817.445 317.756 827.149 322.632L829.807 317.583C820.103 312.707 748.849 272.227 716.88 254.846Z" fill="#CCC5C1"/>
<ellipse cx="820.048" cy="314.454" rx="6.28329" ry="18.9533" transform="rotate(117.759 820.048 314.454)" fill="#23282E"/>
<circle cx="725.695" cy="285.972" r="8.90676" transform="rotate(117.759 725.695 285.972)" fill="#CCC5C1"/>
<circle cx="725.694" cy="285.971" r="5.60697" transform="rotate(117.759 725.694 285.971)" fill="#23282E"/>
<circle cx="691.294" cy="290.666" r="8.90676" transform="rotate(117.759 691.294 290.666)" fill="#CCC5C1"/>
<circle cx="691.293" cy="290.666" r="5.60697" transform="rotate(117.759 691.293 290.666)" fill="#23282E"/>
<circle cx="656.601" cy="288.81" r="5.60697" transform="rotate(117.759 656.601 288.81)" fill="#23282E"/>
<mask id="mask1" mask-type="alpha" maskUnits="userSpaceOnUse" x="542" y="-1" width="523" height="472">
<path d="M971.753 243.937C943.97 248.709 952.063 281.813 959.581 297.769C941.405 301.132 897.755 310.875 868.565 322.943C832.079 338.029 894.806 390.133 894.498 401.283C894.19 412.432 879.406 419.394 851.097 410.371C822.788 401.348 806.317 368.436 773.709 342.458C741.101 316.48 642.699 335.947 607.608 303.52C572.517 271.093 569.036 228.856 613.09 138.176C657.144 47.496 720.303 30.7829 765.689 43.6512C811.074 56.5195 856.308 132.485 880.529 156.253C904.751 180.021 989.346 181.202 1016.66 196.311C1043.97 211.419 1047.9 231.857 1037 252.566C1026.1 273.276 1006.48 237.972 971.753 243.937Z" fill="#315F94"/>
</mask>
<g mask="url(#mask1)">
<path d="M851.14 48.6553L630.202 75.1712" stroke="#C4F5EE" stroke-width="3.5493"/>
<path d="M839.304 71.147L618.365 97.6629" stroke="#C4F5EE" stroke-width="18.6338"/>
<path d="M842.264 91.8623L606.525 120.155" stroke="#C4F5EE" stroke-width="3.5493"/>
</g>
<path d="M1385.83 562.699L702.31 202.942" stroke="#483E39" stroke-width="0.887325"/>
<path d="M1370.42 546.951L705.461 196.965" stroke="#483E39" stroke-width="0.887325"/>
<path d="M1355.54 531.433L708.621 190.942" stroke="#483E39" stroke-width="0.887325"/>
<path d="M1340.66 515.918L711.788 184.924" stroke="#483E39" stroke-width="0.887325"/>
<path d="M1326.3 500.688L714.943 178.916" stroke="#483E39" stroke-width="0.887325"/>
<path d="M1310.64 484.772L718.114 172.911" stroke="#483E39" stroke-width="0.887325"/>
<circle cx="1310.46" cy="484.681" r="3.70101" transform="rotate(117.759 1310.46 484.681)" fill="#23282E"/>
<circle cx="1324.76" cy="499.88" r="3.70101" transform="rotate(117.759 1324.76 499.88)" fill="#23282E"/>
<circle cx="1339.66" cy="515.391" r="3.70101" transform="rotate(117.759 1339.66 515.391)" fill="#23282E"/>
<circle cx="1354.56" cy="530.901" r="3.70101" transform="rotate(117.759 1354.56 530.901)" fill="#23282E"/>
<circle cx="1369.47" cy="546.411" r="3.70101" transform="rotate(117.759 1369.47 546.411)" fill="#23282E"/>
<circle cx="1384.37" cy="561.921" r="3.70101" transform="rotate(117.759 1384.37 561.921)" fill="#23282E"/>
<path d="M656.451 289.207C708.616 589.146 -242.161 282.151 63.8157 641.259" stroke="#C4F5EE" stroke-width="5" stroke-linecap="round" stroke-linejoin="round"/>
</svg>
