<svg width="883" height="2223" viewBox="0 0 883 2223" fill="none" xmlns="http://www.w3.org/2000/svg">
<path d="M450.65 2064.37C450.226 2074.28 472.354 2083.28 500.074 2084.47C527.794 2085.65 550.608 2078.57 551.032 2068.66C551.107 2066.91 550.482 2065.19 549.252 2063.54C543.492 2055.81 519.717 2061.65 500.792 2060.43C482.895 2059.28 462.897 2051.41 454.965 2057.49C452.289 2059.54 450.757 2061.87 450.65 2064.37Z" fill="#23282E"/>
<path d="M503.115 2013.29L549.252 2063.54L454.965 2057.49L503.115 2013.29Z" fill="#23282E"/>
<path d="M498.367 1979.3C526.273 1985.49 515.231 2018.83 514.531 2025.61C513.832 2032.38 484.689 2037.05 486.986 2026.66C489.282 2016.27 496.316 2000.6 488.693 1998.63C481.071 1996.65 401.746 1994.02 385.234 1965.3C368.722 1936.58 382.797 1900.77 384.365 1888.49L428.456 1895.54C421.419 1902.46 407.537 1922.31 408.305 1946.38C409.265 1976.46 463.484 1971.56 498.367 1979.3Z" fill="#FF697D"/>
<rect width="208.2" height="131.933" transform="matrix(-0.982307 0.187276 0.187276 0.982307 531.624 1802.84)" fill="#FF7C8E"/>
<path d="M641.97 329.231C610.965 323.136 424.665 228.177 489.439 168.436C554.214 108.694 679.567 344.487 792.284 141.945" stroke="#AAE8DF" stroke-width="5" stroke-linecap="round" stroke-linejoin="round"/>
<path d="M572.044 356.394C601.966 318.195 610.835 304.148 633.291 288.092C641.902 281.928 646.208 278.845 652.924 276.102C689.021 261.288 715.264 271.181 729.509 279.968C717.313 305.218 701.794 333.097 681.942 362.024C670.487 378.716 658.945 393.84 647.654 407.44C639.037 401.441 630.392 401.77 628.241 404.921C626.189 407.926 628.79 415.335 635.982 421.123C630.803 430.529 623.274 441.979 612.389 453.468C605.812 460.425 599.278 466.041 593.333 470.573C571.458 455.096 536.877 429.532 543.942 394.408C545.025 388.903 546.293 389.304 572.044 356.394Z" fill="#569AD4"/>
<path d="M578.297 356.093C545.518 308.422 523.412 295.656 481.516 282.327L438.948 316.132C485.371 329.873 510.573 340.731 546.43 395.187C554.524 407.48 567.616 393.28 575.069 382.882C582.522 372.484 584.677 365.368 578.297 356.093Z" fill="#FFD1D1"/>
<mask id="mask0" mask-type="alpha" maskUnits="userSpaceOnUse" x="434" y="269" width="153" height="146">
<path d="M578.298 356.093C545.519 308.422 523.412 295.656 481.516 282.327L438.948 316.132C485.371 329.873 510.574 340.731 546.431 395.187C554.525 407.48 567.617 393.28 575.07 382.882C582.523 372.484 584.678 365.368 578.298 356.093Z" fill="#FFD1D1"/>
</mask>
<g mask="url(#mask0)">
<path d="M486.389 275.741L453.615 310.244L519.213 380.118C534.015 362.472 561.557 324.648 553.31 314.517C545.064 304.386 505.26 284.445 486.389 275.741Z" fill="#FFBFBE"/>
</g>
<path d="M394.092 427.92C394.259 527.35 484.693 619.735 529.27 672.594L293.045 684.06L247.223 518.391C257.014 419.304 242.882 261.546 311.499 221.127C380.116 180.709 521.771 187.447 558.586 221.129L496.313 397.371C462.24 363.689 393.915 322.645 394.092 427.92Z" fill="#BFC7F3"/>
<mask id="mask1" mask-type="alpha" maskUnits="userSpaceOnUse" x="247" y="193" width="312" height="492">
<path d="M394.092 427.92C394.092 533.196 482.048 632.143 527.088 668.958L293.045 684.06L247.223 518.391C257.014 419.304 242.882 261.546 311.499 221.127C380.116 180.709 521.771 187.447 558.586 221.129L496.313 397.371C462.24 363.689 394.092 322.644 394.092 427.92Z" fill="#BFC7F3"/>
</mask>
<g mask="url(#mask1)">
<circle cx="408.213" cy="197.161" r="3.48967" fill="#FFBFBE"/>
<circle cx="340.748" cy="322.029" r="3.48967" fill="#FFBFBE"/>
<circle cx="440.088" cy="322.029" r="3.48967" fill="#FFBFBE"/>
<circle cx="391.224" cy="264.033" r="3.48967" fill="#FFBFBE"/>
<circle cx="408.213" cy="420.858" r="3.48967" fill="#FFBFBE"/>
<circle cx="292.814" cy="420.858" r="3.48967" fill="#FFBFBE"/>
<circle cx="352.584" cy="383.575" r="3.48967" fill="#FFBFBE"/>
<circle cx="250.795" cy="371.739" r="3.48967" fill="#FFBFBE"/>
<circle cx="299.795" cy="518.503" r="3.48967" fill="#FFBFBE"/>
<circle cx="421.705" cy="518.503" r="3.48967" fill="#FFBFBE"/>
<circle cx="377.322" cy="477.078" r="3.48967" fill="#FFBFBE"/>
<circle cx="537.697" cy="456.365" r="3.48967" fill="#FFBFBE"/>
<circle cx="478.006" cy="235.627" r="3.48967" fill="#FFBFBE"/>
<circle cx="321.564" cy="271.013" r="3.48967" fill="#FFBFBE"/>
<circle cx="380.81" cy="559.237" r="3.48967" fill="#FFBFBE"/>
<circle cx="513.373" cy="538.482" r="3.48967" fill="#FFBFBE"/>
<circle cx="496.24" cy="484.058" r="3.48967" fill="#FFBFBE"/>
<circle cx="484.986" cy="393.355" r="3.48967" fill="#FFBFBE"/>
<circle cx="513.373" cy="616.033" r="3.48967" fill="#FFBFBE"/>
</g>
<path d="M391.254 335.664C363.258 350.318 310.549 357.841 323.672 270.706C336.795 183.571 374.194 117.607 391.254 95.5173" stroke="#AAE8DF" stroke-width="5" stroke-linecap="round" stroke-linejoin="round"/>
<path d="M399.005 364.924C376.801 321.779 367.745 307.853 362.54 280.742C360.537 270.343 359.536 265.143 359.849 257.895C361.473 218.91 381.425 199.201 395.36 189.93C413.205 211.561 432.05 237.309 450.036 267.43C460.415 284.812 469.334 301.617 476.972 317.558C467.922 322.88 464.608 330.873 466.573 334.143C468.445 337.264 476.263 337.996 484.527 333.879C490.909 342.515 498.166 354.139 504.056 368.83C507.628 377.711 510 385.994 511.633 393.289C488.433 406.697 450.759 427.433 421.799 406.339C417.25 403.054 418.145 402.071 399.005 364.924Z" fill="#569AD4"/>
<path d="M397.922 368.671L310.766 453.594L337.966 500.657L431.923 405.924C438.776 399.22 433.141 384.688 423.948 375.791C414.755 366.894 403.338 363.485 397.922 368.671Z" fill="#FFD1D1"/>
<mask id="mask2" mask-type="alpha" maskUnits="userSpaceOnUse" x="310" y="366" width="125" height="135">
<path d="M397.922 368.671L310.766 453.594L337.966 500.657L431.923 405.924C438.776 399.22 433.141 384.688 423.948 375.791C414.755 366.894 403.338 363.485 397.922 368.671Z" fill="#FFD1D1"/>
</mask>
<g mask="url(#mask2)">
<path d="M330.645 423.882L286.742 442.244L318.603 532.634C339.263 522.453 379.717 498.942 376.254 486.346C372.792 473.75 344.405 439.455 330.645 423.882Z" fill="#FFBFBE"/>
</g>
<path d="M508.765 909.061H342.042C339.536 888.738 331.676 842.677 320.279 821.023C306.033 793.956 166.287 855.207 114.606 726.005C62.9235 596.803 152.484 559.067 279.829 374.628L394.009 527.23C394.009 527.23 308.79 575.427 300.692 600.786C276.681 675.973 383.308 564.283 497.831 645.313C612.353 726.343 543.839 821.601 508.765 909.061Z" fill="#9BA5DC"/>
<mask id="mask3" mask-type="alpha" maskUnits="userSpaceOnUse" x="99" y="374" width="463" height="536">
<path d="M508.765 909.061H342.042C339.536 888.738 331.676 842.677 320.279 821.023C306.033 793.956 166.287 855.207 114.606 726.005C62.9235 596.803 152.484 559.067 279.829 374.628L394.009 527.23C394.009 527.23 308.79 575.427 300.692 600.786C276.681 675.973 383.308 564.283 497.831 645.313C612.353 726.343 543.839 821.601 508.765 909.061Z" fill="#9BA5DC"/>
</mask>
<g mask="url(#mask3)">
<circle cx="264.212" cy="442.161" r="3.48967" fill="#FFD1D1"/>
<circle cx="196.748" cy="567.029" r="3.48967" fill="#FFD1D1"/>
<circle cx="296.087" cy="567.029" r="3.48967" fill="#FFD1D1"/>
<circle cx="247.224" cy="509.033" r="3.48967" fill="#FFD1D1"/>
<circle cx="264.212" cy="665.858" r="3.48967" fill="#FFD1D1"/>
<circle cx="148.814" cy="665.858" r="3.48967" fill="#FFD1D1"/>
<circle cx="208.583" cy="628.575" r="3.48967" fill="#FFD1D1"/>
<circle cx="106.794" cy="616.739" r="3.48967" fill="#FFD1D1"/>
<circle cx="155.794" cy="763.503" r="3.48967" fill="#FFD1D1"/>
<circle cx="277.705" cy="763.503" r="3.48967" fill="#FFD1D1"/>
<circle cx="233.322" cy="722.078" r="3.48967" fill="#FFD1D1"/>
<circle cx="393.697" cy="701.365" r="3.48967" fill="#FFD1D1"/>
<circle cx="334.005" cy="480.627" r="3.48967" fill="#FFD1D1"/>
<circle cx="177.564" cy="516.013" r="3.48967" fill="#FFD1D1"/>
<circle cx="236.81" cy="804.237" r="3.48967" fill="#FFD1D1"/>
<circle cx="369.373" cy="783.482" r="3.48967" fill="#FFD1D1"/>
<circle cx="352.24" cy="729.058" r="3.48967" fill="#FFD1D1"/>
<circle cx="340.986" cy="638.355" r="3.48967" fill="#FFD1D1"/>
<circle cx="484.947" cy="648.917" r="3.48967" fill="#FFD1D1"/>
<circle cx="467.716" cy="746.844" r="3.48967" fill="#FFD1D1"/>
<circle cx="439.958" cy="797.257" r="3.48967" fill="#FFD1D1"/>
<circle cx="477.966" cy="857.543" r="3.48967" fill="#FFD1D1"/>
<circle cx="369.373" cy="861.033" r="3.48967" fill="#FFD1D1"/>
<circle cx="541.63" cy="756.524" r="3.48967" fill="#FFD1D1"/>
</g>
<path d="M116.298 1151.05C113.586 1144.69 105.087 1142.82 103.618 1142.5C100.173 1141.73 97.3674 1142.01 95.2689 1142.28C79.9626 1144.19 77.685 1148.81 68.534 1149.06C62.8772 1149.22 57.2964 1147.34 46.2004 1143.6C40.5047 1141.7 35.0427 1139.42 30.9581 1142.08C30.5944 1142.31 28.2293 1143.86 27.7037 1146.55C27.3164 1148.48 27.6613 1152.16 36.4502 1159.24C47.0995 1167.85 57.8674 1171.5 60.4407 1172.36C72.611 1176.38 85.9945 1180.77 100.122 1175.62C109.168 1172.34 112.733 1167.15 113.517 1165.94C114.676 1164.12 119.052 1157.46 116.298 1151.05Z" fill="#FFBFBE"/>
<path d="M466.586 1752.84C456.875 1745.31 448.497 1716.98 430.117 1714.68C411.738 1712.38 397.44 1663.98 397.44 1663.98C394.2 1662.9 384.763 1661.67 372.937 1665.37C361.11 1669.07 349.781 1684.07 345.594 1691.11C360.094 1700.61 377.296 1730.64 373.821 1747.32C370.897 1761.34 380.228 1768.41 400.185 1818.24L469.871 1810.98C471.244 1796.62 469.459 1790.41 465.924 1779.6C478.607 1784.79 508.057 1793.22 517.771 1785.12C529.915 1774.98 478.726 1762.25 466.586 1752.84Z" fill="#FFBFBE"/>
<path d="M426.595 1779.39C391.035 1781.4 369.483 1817.64 359.997 1837.58C354.641 1848.84 373.021 1854.22 380.008 1841.35C388.212 1826.23 404.673 1809.48 420.398 1806.4C435.023 1803.53 467.72 1808.48 479.898 1821.88C485.512 1828.06 503.38 1823.42 498.893 1812.29C492.157 1795.59 462.154 1777.37 426.595 1779.39Z" fill="#23282E" stroke="black"/>
<path d="M451.218 1777.88C458.414 1776.84 471.236 1801.48 471.73 1812.69C472.223 1823.9 458.413 1825.89 452.474 1818.72C448.911 1830.96 438.329 1833.5 431.695 1824.13C427.077 1837.67 418.392 1835.05 412.686 1827.69C410.617 1833.84 404.77 1834.54 399.644 1833.16C393.237 1831.43 390.21 1813.59 388.991 1807.74C387.773 1801.89 387.923 1786.54 394.213 1783.62C399.245 1781.28 404.815 1791.18 406.971 1796.43C405.753 1791.81 404.962 1781.94 411.543 1779.43C418.124 1776.92 422.768 1789.81 424.267 1796.57C423.554 1792.17 423.635 1782.43 429.666 1778.61C435.698 1774.78 442.362 1787.11 444.941 1793.75C444.035 1788.9 444.023 1778.93 451.218 1777.88Z" fill="#FFD1D1"/>
<path d="M319.375 929.145C350.314 918.263 340.905 902.687 325.122 893.036C293.182 873.505 114.744 1106.47 108.753 1109.56C102.763 1112.65 101.4 1106.6 93.7618 1114.62C86.1234 1122.64 90.1929 1123.76 74.2236 1150.43C59.0996 1175.64 57.4457 1177.22 55.3498 1178.84C40.0865 1190.62 19.8791 1190.87 19.1962 1199.67C19.1442 1200.28 19.068 1201.28 19.66 1202.29C23.8294 1209.42 52.2018 1199.62 62.8026 1195.73C56.5731 1205.78 49.9204 1212.03 44.9063 1215.95C33.2152 1225.09 20.7738 1228.93 20.9656 1235.95C20.968 1236.24 21.1113 1239.26 23.1413 1240.74C25.2653 1242.27 28.3108 1241.33 31.3325 1240.27C40.5633 1236.98 48.6664 1234.09 57.5254 1225.49C59.6587 1223.42 61.5406 1221.28 61.497 1221.24C61.3912 1221.14 53.4126 1230.88 41.2095 1241.56C30.4418 1250.98 23.1276 1255.25 23.676 1261.53C23.7325 1262.03 23.9344 1264.42 25.622 1265.56C28.2658 1267.36 33.4676 1265.48 38.8661 1260.62C37.3696 1262.21 30.038 1270.22 32.5548 1275.46C32.5548 1275.46 33.2114 1276.84 34.4811 1277.63C36.8327 1279.12 44.8237 1277.57 79.4961 1239.84C93.9705 1221.38 99.8785 1206.03 108.877 1184.88C112.508 1176.32 126.018 1145.48 141.76 1127.35C163.171 1102.7 288.436 940.027 319.375 929.145Z" fill="#FFD1D1"/>
<path d="M339.581 1056.79C348.195 1098.29 330.193 1196.96 320.116 1241.11C320.116 1241.98 342.105 1245.58 332.397 1253.72C233.009 1337.05 252.401 1665.12 295.991 1690.07C339.581 1715.01 462.38 1683.34 457.172 1649.77C451.965 1616.21 291.993 1444.51 457.172 1302.47C622.352 1160.42 561.401 909.127 537.413 889.601C518.223 873.98 450.258 889.313 418.675 898.932C386.291 882.141 360.224 880.237 259.309 889.601C158.393 898.964 113.659 984.794 106.376 1038.37C99.0936 1091.95 157.356 1112.76 195.849 1115.36C234.343 1117.96 258.271 1029.53 274.917 1005.08C288.234 985.523 310.598 993.464 320.116 999.88C323.015 1001.56 330.967 1015.28 339.581 1056.79Z" fill="#FFEAC1"/>
<mask id="mask4" mask-type="alpha" maskUnits="userSpaceOnUse" x="105" y="882" width="464" height="818">
<path d="M339.581 1056.79C348.195 1098.29 330.193 1196.96 320.116 1241.11C320.116 1241.98 342.105 1245.58 332.397 1253.72C233.009 1337.05 252.401 1665.12 295.991 1690.07C339.581 1715.01 462.38 1683.34 457.172 1649.77C451.965 1616.21 291.993 1444.51 457.172 1302.47C622.352 1160.42 561.401 909.127 537.413 889.601C518.223 873.98 450.258 889.313 418.675 898.932C386.291 882.141 360.224 880.237 259.309 889.601C158.393 898.964 113.659 984.794 106.376 1038.37C99.0936 1091.95 157.356 1112.76 195.849 1115.36C234.343 1117.96 258.271 1029.53 274.917 1005.08C288.234 985.523 310.598 993.464 320.116 999.88C323.015 1001.56 330.967 1015.28 339.581 1056.79Z" fill="#FFEAC1"/>
</mask>
<g mask="url(#mask4)">
<path d="M489.461 1040.99C489.461 1040.99 468.587 925.539 417.293 897.549C421.029 885.228 435.256 863.717 462.275 876.238C496.049 891.889 489.461 1040.99 489.461 1040.99Z" fill="#FFE2AB"/>
<path d="M323.421 1195.94C323.421 1195.94 318.72 1070.63 295.762 1037.65C299.497 1025.33 323.421 1002.74 323.421 1002.74C398.345 1034.51 323.421 1195.94 323.421 1195.94Z" fill="#FFE2AB"/>
<path d="M315.103 1276.12C335.679 1316.13 515.524 1270.75 511.992 1239.32C562.439 1250.74 489.269 1343.92 398.433 1413.73C398.569 1443.7 380.467 1454.29 348.279 1448.55C320.825 1487.14 279.407 1502.49 237.051 1491.51C201.017 1482.17 315.103 1276.12 315.103 1276.12Z" fill="#FFE2AB"/>
<path d="M319.087 1219.95C331.465 1220.68 354.283 1215.58 364.72 1238.88C375.158 1262.18 372.488 1285.97 346.515 1293.74" stroke="#FFE2AB" stroke-width="7"/>
</g>
<path d="M207.822 1263.72C230.361 1286.28 185.103 1285.51 185.103 1285.51C185.103 1285.51 187.315 1328.02 175.566 1318.18C163.817 1308.33 185.282 1241.16 207.822 1263.72Z" fill="#569AD4"/>
<path d="M171.403 1274.35C188.845 1270.77 215.509 1267.06 215.767 1284.86C215.873 1292.18 208.557 1302.15 208.557 1302.15L309.229 1277.31C309.229 1277.31 366.741 1336.39 322.059 1371.23C352.064 1394.76 302.096 1440.15 271.894 1410.14C255.603 1462.05 190.157 1431.23 200.673 1402.63C184.025 1421.36 128.746 1402.74 160.303 1363.91C144.658 1381.54 120.327 1355.34 123.832 1332.62C127.412 1309.42 142.241 1280.33 171.403 1274.35Z" fill="#569AD4"/>
<ellipse cx="290.069" cy="1311.84" rx="21.2054" ry="14.0826" transform="rotate(33.8662 290.069 1311.84)" fill="#FFBFBE"/>
<path d="M356.337 1256.05C355.129 1242.61 344.164 1232.14 330.687 1231.56L282.211 1229.46C270.987 1228.97 261.564 1237.83 261.35 1249.06L260.814 1277.16C260.563 1290.29 272.822 1300.09 285.577 1296.96L335.94 1284.6C348.861 1281.43 357.528 1269.3 356.337 1256.05Z" fill="#FFBFBE"/>
<path d="M200.239 1297.51C199.29 1274.46 209.781 1254.39 234.486 1231.22C242.909 1223.33 259.894 1207.29 284.201 1219.81C308.508 1232.33 322.915 1265.92 303.715 1294.2C296.479 1304.85 286.976 1318.23 273.031 1327.83C263.387 1334.47 252.334 1339.96 242.536 1339.56C220.093 1338.64 200.94 1314.52 200.239 1297.51Z" fill="#FFD1D1"/>
<ellipse rx="15.8348" ry="9.09506" transform="matrix(0.592325 0.805699 0.805699 -0.592325 219.821 1261.76)" fill="white"/>
<circle r="8.21049" transform="matrix(0.236463 0.971641 0.971641 -0.236463 217.052 1258.18)" fill="#23282E"/>
<ellipse rx="15.8348" ry="9.09506" transform="matrix(0.592325 0.805699 0.805699 -0.592325 246.817 1294.47)" fill="white"/>
<circle r="8.21049" transform="matrix(0.236463 0.971641 0.971641 -0.236463 244.048 1290.9)" fill="#23282E"/>
<path d="M230.917 1279.68C234.161 1274.33 237.471 1267.55 239.676 1259.34C240.278 1257.14 240.726 1255.04 241.12 1253.01C241.317 1251.97 242.898 1250.55 245.029 1251.97C247.608 1253.67 250.343 1258.93 250.901 1260.03" stroke="#23282E" stroke-width="2" stroke-miterlimit="10" stroke-linecap="round" stroke-linejoin="round"/>
<path d="M262.59 1245.84C265.629 1250.03 266.204 1252.71 266.671 1257.67" stroke="#23282E" stroke-width="2" stroke-miterlimit="10" stroke-linecap="round" stroke-linejoin="round"/>
<path d="M214.624 1282.49C216.716 1281.02 203.21 1263.73 200.621 1263.6C198.617 1263.5 200.664 1273.46 208.449 1279.46C210.156 1280.78 213.731 1283.11 214.624 1282.49Z" fill="#569AD4"/>
<path d="M244.195 1312.14C245.884 1310.22 228.702 1296.57 226.156 1297.06C224.184 1297.43 228.506 1306.63 237.481 1310.64C239.451 1311.53 243.471 1312.94 244.195 1312.14Z" fill="#569AD4"/>
<path d="M316.348 1656.25C316.348 1656.25 321.301 1667.32 327.413 1667.32C333.525 1667.32 338.48 1656.25 338.48 1656.25" stroke="#FFE2AB" stroke-width="2" stroke-linecap="round" stroke-linejoin="round"/>
<path d="M360.621 1609.44C360.621 1609.44 365.575 1620.51 371.686 1620.51C377.799 1620.51 382.754 1609.44 382.754 1609.44" stroke="#FFE2AB" stroke-width="2" stroke-linecap="round" stroke-linejoin="round"/>
<path d="M305.281 1531.24C305.281 1531.24 310.235 1542.31 316.347 1542.31C322.459 1542.31 327.414 1531.24 327.414 1531.24" stroke="#FFE2AB" stroke-width="2" stroke-linecap="round" stroke-linejoin="round"/>
<path d="M343.778 1498.08C343.778 1498.08 348.731 1509.14 354.843 1509.14C360.955 1509.14 365.91 1498.08 365.91 1498.08" stroke="#FFE2AB" stroke-width="2" stroke-linecap="round" stroke-linejoin="round"/>
<path d="M423.27 1267.18C423.27 1267.18 426.291 1255.44 421.511 1251.63C416.73 1247.82 405.959 1253.39 405.959 1253.39" stroke="#FFE2AB" stroke-width="2" stroke-linecap="round" stroke-linejoin="round"/>
<path d="M459.336 1110.98C459.336 1110.98 462.357 1099.23 457.577 1095.43C452.797 1091.62 442.025 1097.19 442.025 1097.19" stroke="#FFE2AB" stroke-width="2" stroke-linecap="round" stroke-linejoin="round"/>
<path d="M429.399 1052.57C429.399 1052.57 423.879 1041.78 417.775 1042.09C411.671 1042.41 407.296 1053.72 407.296 1053.72" stroke="#FFE2AB" stroke-width="2" stroke-linecap="round" stroke-linejoin="round"/>
<path d="M381.942 1219.94C381.942 1219.94 378.774 1208.23 372.737 1207.28C366.7 1206.32 360.08 1216.49 360.08 1216.49" stroke="#FFE2AB" stroke-width="2" stroke-linecap="round" stroke-linejoin="round"/>
<path d="M412.168 1154.06C412.168 1154.06 409.001 1142.35 402.964 1141.4C396.926 1140.45 390.306 1150.61 390.306 1150.61" stroke="#FFE2AB" stroke-width="2" stroke-linecap="round" stroke-linejoin="round"/>
<path d="M464.227 990.41C464.227 990.41 456.523 981.047 450.629 982.663C444.734 984.279 442.882 996.263 442.882 996.263" stroke="#FFE2AB" stroke-width="2" stroke-linecap="round" stroke-linejoin="round"/>
<path d="M360.414 983.872C360.414 983.872 349.009 979.759 344.767 984.158C340.525 988.559 345.055 999.807 345.055 999.807" stroke="#FFE2AB" stroke-width="2" stroke-linecap="round" stroke-linejoin="round"/>
<path d="M411.934 915.451C411.934 915.451 399.849 916.434 397.812 922.196C395.774 927.959 404.559 936.319 404.559 936.319" stroke="#FFE2AB" stroke-width="2" stroke-linecap="round" stroke-linejoin="round"/>
<path d="M337.086 931.274C337.086 931.274 325.001 932.256 322.964 938.018C320.927 943.781 329.711 952.141 329.711 952.141" stroke="#FFE2AB" stroke-width="2" stroke-linecap="round" stroke-linejoin="round"/>
<path d="M284.934 959.132C284.934 959.132 276.439 967.784 278.67 973.474C280.901 979.165 293.014 979.737 293.014 979.737" stroke="#FFE2AB" stroke-width="2" stroke-linecap="round" stroke-linejoin="round"/>
<path d="M282.602 899.191C282.602 899.191 278.067 910.436 282.307 914.838C286.547 919.241 297.956 915.131 297.956 915.131" stroke="#FFE2AB" stroke-width="2" stroke-linecap="round" stroke-linejoin="round"/>
<path d="M203.609 915.131C203.609 915.131 198.927 926.315 203.107 930.773C207.289 935.232 218.751 931.273 218.751 931.273" stroke="#FFE2AB" stroke-width="2" stroke-linecap="round" stroke-linejoin="round"/>
<path d="M232.844 991.103C232.844 991.103 233.045 1003.23 238.664 1005.63C244.284 1008.03 253.193 999.808 253.193 999.808" stroke="#FFE2AB" stroke-width="2" stroke-linecap="round" stroke-linejoin="round"/>
<path d="M157.113 990.624C157.113 990.624 157.462 1002.74 163.109 1005.08C168.757 1007.42 177.566 999.082 177.566 999.082" stroke="#FFE2AB" stroke-width="2" stroke-linecap="round" stroke-linejoin="round"/>
<path d="M183.742 1053.72C183.742 1053.72 183.865 1065.84 189.468 1068.28C195.071 1070.72 204.034 1062.56 204.034 1062.56" stroke="#FFE2AB" stroke-width="2" stroke-linecap="round" stroke-linejoin="round"/>
<path d="M124.656 1053.72C124.656 1053.72 120.72 1065.19 125.185 1069.36C129.65 1073.53 140.827 1068.83 140.827 1068.83" stroke="#FFE2AB" stroke-width="2" stroke-linecap="round" stroke-linejoin="round"/>
<path d="M464.969 1184.2C464.969 1184.2 467.54 1172.35 462.618 1168.73C457.696 1165.1 447.144 1171.08 447.144 1171.08" stroke="#FFE2AB" stroke-width="2" stroke-linecap="round" stroke-linejoin="round"/>
<path d="M510.481 1092.47C510.481 1092.47 513.052 1080.62 508.13 1077C503.207 1073.37 492.656 1079.35 492.656 1079.35" stroke="#FFE2AB" stroke-width="2" stroke-linecap="round" stroke-linejoin="round"/>
<path d="M553.969 1034.77C553.969 1034.77 548.74 1023.83 542.63 1023.99C536.52 1024.14 531.843 1035.33 531.843 1035.33" stroke="#FFE2AB" stroke-width="2" stroke-linecap="round" stroke-linejoin="round"/>
<path d="M503.86 967.529C503.86 967.529 498.631 956.589 492.521 956.742C486.411 956.894 481.734 968.082 481.734 968.082" stroke="#FFE2AB" stroke-width="2" stroke-linecap="round" stroke-linejoin="round"/>
<path d="M541.629 929.296C541.629 929.296 536.4 918.357 530.29 918.509C524.18 918.661 519.503 929.85 519.503 929.85" stroke="#FFE2AB" stroke-width="2" stroke-linecap="round" stroke-linejoin="round"/>
<path d="M492.657 909.701C492.657 909.701 487.428 898.762 481.318 898.914C475.208 899.066 470.531 910.255 470.531 910.255" stroke="#FFE2AB" stroke-width="2" stroke-linecap="round" stroke-linejoin="round"/>
<path d="M527.629 1161.28C527.629 1161.28 527.261 1149.16 521.61 1146.84C515.958 1144.51 507.163 1152.86 507.163 1152.86" stroke="#FFE2AB" stroke-width="2" stroke-linecap="round" stroke-linejoin="round"/>
<path d="M475.856 1251.87C475.856 1251.87 479.92 1240.44 475.502 1236.22C471.084 1232 459.855 1236.57 459.855 1236.57" stroke="#FFE2AB" stroke-width="2" stroke-linecap="round" stroke-linejoin="round"/>
<path d="M388.141 1094.28C388.141 1094.28 380.605 1084.78 374.683 1086.29C368.76 1087.8 366.696 1099.75 366.696 1099.75" stroke="#FFE2AB" stroke-width="2" stroke-linecap="round" stroke-linejoin="round"/>
<path d="M305.281 1444.79C305.281 1444.79 310.235 1455.85 316.347 1455.85C322.459 1455.85 327.414 1444.79 327.414 1444.79" stroke="#FFE2AB" stroke-width="2" stroke-linecap="round" stroke-linejoin="round"/>
<path d="M539.709 2103.76C538.119 2100.38 541.949 2092.73 541.949 2092.73C541.949 2092.73 545.908 2100.19 544.376 2103.65C543.155 2106.4 540.976 2106.45 539.709 2103.76Z" fill="#569AD4"/>
<path d="M520.044 2184.41C518.454 2181.03 522.284 2173.38 522.284 2173.38C522.284 2173.38 526.243 2180.85 524.711 2184.3C523.49 2187.05 521.311 2187.1 520.044 2184.41Z" fill="#6EAADD"/>
<path d="M484.396 2220.52C482.806 2217.14 486.636 2209.49 486.636 2209.49C486.636 2209.49 490.595 2216.96 489.063 2220.41C487.843 2223.16 485.663 2223.21 484.396 2220.52Z" fill="#6EAADD"/>
<path d="M467.975 2103.63C466.386 2100.25 470.216 2092.6 470.216 2092.6C470.216 2092.6 474.174 2100.06 472.642 2103.51C471.422 2106.27 469.242 2106.32 467.975 2103.63Z" fill="#6EAADD"/>
<path d="M499.454 2140.47C497.865 2137.09 501.695 2129.44 501.695 2129.44C501.695 2129.44 505.653 2136.9 504.122 2140.35C502.901 2143.11 500.721 2143.16 499.454 2140.47Z" fill="#569AD4"/>
<path d="M462.46 2158.28C460.871 2154.9 464.702 2147.25 464.702 2147.25C464.702 2147.25 468.659 2154.71 467.127 2158.16C465.906 2160.92 463.726 2160.97 462.46 2158.28Z" fill="#569AD4"/>
<ellipse rx="17.4542" ry="65.9989" transform="matrix(-0.983524 0.180779 0.180779 0.983524 544.115 1867.6)" fill="#FF697D"/>
<ellipse rx="7.61194" ry="28.7828" transform="matrix(-0.983524 0.180779 0.180779 0.983524 540.345 1836.77)" fill="#23282E"/>
<ellipse rx="17.4542" ry="65.9989" transform="matrix(-0.983524 0.180779 0.180779 0.983524 340.084 1906.5)" fill="#FF7C8E"/>
<path d="M603.889 338.599C546.2 261.014 465.435 106.557 603.889 109.413C776.956 112.982 869.757 407.442 880.465 203.997" stroke="#AAE8DF" stroke-width="5" stroke-linecap="round" stroke-linejoin="round"/>
<path d="M412.137 340.675C356.113 326.858 165.305 212.949 181.079 186.264C200.797 152.906 363.729 145.847 233.116 77.3074" stroke="#AAE8DF" stroke-width="5" stroke-linecap="round" stroke-linejoin="round"/>
<path d="M614.869 321.678C608.713 310.034 609.552 305.375 617.791 299.941" stroke="#AAE8DF" stroke-width="5" stroke-linecap="round"/>
<path d="M629.607 309.714C623.452 298.07 624.29 293.411 632.529 287.977" stroke="#AAE8DF" stroke-width="5" stroke-linecap="round"/>
<path d="M390.665 317.585C378.018 321.263 373.625 319.501 369.966 310.335" stroke="#AAE8DF" stroke-width="5" stroke-linecap="round"/>
<path d="M383.884 299.067C371.237 302.745 366.843 300.983 363.185 291.817" stroke="#AAE8DF" stroke-width="5" stroke-linecap="round"/>
<path d="M302.104 1311.84C301.522 1306.8 308.403 1304.1 311.529 1308.1" stroke="white" stroke-width="5" stroke-linecap="round"/>
</svg>
