<svg width="1182" height="346" viewBox="0 0 1182 346" fill="none" xmlns="http://www.w3.org/2000/svg">
<path d="M86.5864 162.343V300.98" stroke="#FFEAC1" stroke-width="48" stroke-linecap="round" stroke-linejoin="round"/>
<path d="M1104.89 162.343V300.98" stroke="#FFEAC1" stroke-width="48" stroke-linecap="round" stroke-linejoin="round"/>
<path d="M591.012 183.042V321.679" stroke="#FFEAC1" stroke-width="48" stroke-linecap="round" stroke-linejoin="round"/>
<path d="M327.279 75.9941V214.631" stroke="#FFEAC1" stroke-width="48" stroke-linecap="round" stroke-linejoin="round"/>
<path d="M826.994 75.9941V214.631" stroke="#FFEAC1" stroke-width="48" stroke-linecap="round" stroke-linejoin="round"/>
<path d="M591 187.581C914.087 187.581 1176 172.305 1176 153.461V41.8081C1176 41.8081 1035.56 7 591 7C146.439 7 6 41.5407 6 41.5407V153.461C6 172.305 267.913 187.581 591 187.581Z" fill="#FF697D" stroke="#FF697D" stroke-width="11" stroke-linecap="round" stroke-linejoin="round"/>
<path d="M1104.89 55.2466C1104.89 55.2466 888.863 74.8058 591.001 74.8058C293.138 74.8058 68.8625 56.9135 68.8625 56.9135C68.8625 56.9135 57.6421 59.4404 68.8614 56.9135C128.998 43.3687 339.971 33.3657 591.001 33.3657C831.617 33.3657 1035.43 42.556 1104.89 55.2466Z" fill="#FFEAC1"/>
<ellipse cx="591.013" cy="41.9909" rx="583.008" ry="34.0041" stroke="#FF7C8E" stroke-width="15"/>
<path d="M542.6 159.001L542.22 135.367M541.889 114.719L542.22 135.367M542.22 135.367L556.05 136.084M555.48 113.406L556.621 159.001M574.487 159.001L581.045 111.854L589.504 159.001M589.504 159.001H572.396L573.061 161.269M589.504 159.001H591.5L590.454 162.343M619.962 109.656L605.925 110.422L606.305 134.711M606.305 134.711L606.685 159.001H619.962M606.305 134.711H619.962M637.778 159.001V134.711M637.778 110.422V134.711M650.351 110.422L637.778 134.711M637.778 134.711L651.539 159.001" stroke="white" stroke-opacity="0.6" stroke-width="4" stroke-linecap="round" stroke-linejoin="round"/>
<path d="M522.544 159.203V98.7852C507.955 98.7852 489.516 122.482 516.945 135.714L502.729 159.203" stroke="#FF8B9B" stroke-width="6" stroke-linecap="round" stroke-linejoin="round"/>
<path d="M681.279 114.892C681.279 114.892 680.41 109.856 675.076 109.856C669.742 109.856 667.053 123.48 666.888 133.814C666.716 144.656 669.494 159.201 675.076 159.201C680.658 159.201 682.643 151.201 682.643 151.201" stroke="white" stroke-opacity="0.6" stroke-width="4" stroke-linecap="round" stroke-linejoin="round"/>
</svg>
